<svg width="84" height="27" viewBox="0 0 84 27" fill="none" xmlns="http://www.w3.org/2000/svg">
<g clip-path="url(#clip0_896_2720)">
<path d="M64.173 21.4878C63.6423 20.8712 63.2001 20.1226 62.9347 19.3299L62.8463 19.1097L62.7578 18.8896L62.7136 18.7575L62.6252 18.4932L62.5809 18.3171C62.5367 18.185 62.5367 18.0088 62.4925 17.8327C62.4925 17.7886 62.4925 17.7006 62.4483 17.6565L62.404 17.3483C62.404 17.3042 62.404 17.2162 62.404 17.1721L62.3598 16.9519L74.7427 13.9574C74.6542 13.3409 74.4773 12.6803 74.1677 12.1519C73.7255 11.139 72.9737 10.3023 72.0007 9.72985C70.9394 9.06929 69.7895 8.62892 68.5512 8.49681L68.3301 8.45277C67.5783 8.3647 66.8707 8.3647 66.1189 8.45277C64.173 8.67296 62.3598 9.50966 60.9004 10.8308C59.4852 12.1079 58.5123 13.8253 58.2027 15.7189V15.807C58.1585 15.9391 58.1585 16.0272 58.1585 16.2033C58.1585 16.3794 58.1585 16.3354 58.1143 16.4235C58.1143 16.5116 58.1143 16.5556 58.1143 16.6437C58.1143 16.7758 58.1143 16.8639 58.1143 16.996V17.5685C58.1585 18.5813 58.3796 19.5942 58.7334 20.5189C60.3697 23.8217 63.5981 25.9795 67.2245 25.9795C68.7281 26.0236 70.1875 25.6713 71.5585 25.0107C72.8852 24.3502 74.0351 23.3813 74.8753 22.1923L74.6542 21.6639C73.7697 23.3373 67.711 25.4071 64.173 21.4878ZM69.7895 14.1776L62.404 15.9391C62.404 15.7189 62.404 15.4987 62.4483 15.2785V15.2345C62.4483 15.1464 62.4483 15.1024 62.4483 15.0143L62.4925 14.706C62.5809 14.2657 62.6694 13.7813 62.8021 13.3409C63.0674 12.5042 63.4212 11.7556 63.9519 11.051C64.3941 10.3904 65.0133 9.86196 65.6766 9.46563C66.34 9.06929 67.0476 8.89315 67.8436 8.89315C68.905 8.89315 69.6569 9.2014 70.1433 9.77389C70.3202 9.99407 70.4529 10.2143 70.5856 10.4344C71.072 11.7115 71.0278 13.7813 69.7895 14.1776Z" fill="white"/>
<path d="M42.0601 21.6644C41.1756 23.3378 35.1611 25.4075 31.5789 21.4882C31.004 20.8277 30.5617 20.035 30.2964 19.1543C29.9868 18.1855 29.8542 17.1726 29.8542 16.1598C29.8542 15.1909 29.9868 14.2662 30.2522 13.3414C30.5175 12.5047 30.8713 11.756 31.402 11.0515C31.8443 10.4349 32.4192 9.86245 33.0825 9.46612C33.7459 9.06979 34.4535 8.89364 35.2495 8.89364C36.3109 8.89364 37.0627 9.2019 37.5492 9.77438C38.0357 10.3909 38.301 11.1836 38.301 12.0203C38.301 12.4606 38.2568 12.857 38.1241 13.2533L41.8832 12.3726C40.5123 8.8496 36.0014 8.36519 35.1611 8.36519C27.9967 8.23308 24.0607 14.9708 26.3604 20.4314C27.7756 23.7341 31.0482 25.892 34.6746 25.936C36.1783 25.98 37.6377 25.6277 39.0086 24.9672C40.3354 24.3066 41.4852 23.3378 42.3255 22.1488L42.0601 21.6644Z" fill="white"/>
<path d="M58.3765 21.6633C57.492 23.3367 51.4775 25.4065 47.8953 21.4872C47.3204 20.8266 46.8782 20.034 46.6128 19.1972C46.3032 18.2284 46.1706 17.2156 46.1706 16.2027C46.1706 15.2339 46.3032 14.3091 46.5686 13.3844C46.8339 12.5476 47.1877 11.799 47.7184 11.0944C48.1607 10.4339 48.7356 9.90542 49.3989 9.50909C50.0623 9.11276 50.7699 8.93661 51.5659 8.93661C52.6273 8.93661 53.3792 9.24487 53.8656 9.81735C54.3963 10.4339 54.6617 11.2265 54.6174 12.0632C54.6174 12.5036 54.5732 12.8999 54.4405 13.2963L58.1996 12.4155C56.8287 8.89257 52.3178 8.40816 51.4775 8.40816C44.3131 8.27605 40.3772 15.0137 42.6768 20.4743C44.092 23.7771 47.3646 25.9349 50.9468 25.979C52.4504 26.023 53.9098 25.6707 55.2808 25.0101C56.6075 24.3496 57.7574 23.3808 58.5976 22.1918L58.3765 21.6633Z" fill="white"/>
<path d="M80.269 22.457V-0.00195312L74.9621 1.27512H74.9178V1.75953C75.0947 1.75953 76.731 2.1999 76.731 3.30083V22.3689C76.731 24.7909 75.0063 25.0992 73.8564 25.1873V25.5836H83.1436V25.1873C81.9937 25.1432 80.3132 24.7909 80.269 22.457Z" fill="white"/>
<path d="M16.1429 -0.00195312L10.8802 1.27512H10.836V1.67146C11.0129 1.67146 12.5607 2.1999 12.1627 3.21275C10.1726 7.61646 3.71583 22.2808 3.36204 22.9414C2.25642 25.1432 0.664344 25.1432 0.000976562 25.2313V25.6276H8.22673V25.2313C8.22673 25.2313 5.08679 25.2753 5.08679 23.646C5.08679 22.6771 6.67887 18.8019 7.12112 17.701L17.8234 15.1028C17.8677 15.1908 20.7423 22.1047 20.7423 23.6019C20.7423 25.1873 18.1772 25.2313 18.0888 25.2313V25.6276H28.8353V25.2313C27.2875 25.2753 25.8723 24.3506 25.2089 22.9414C24.9436 22.2808 16.1429 -0.00195312 16.1429 -0.00195312ZM17.5139 14.178L7.60759 16.6C7.65181 16.4679 13.0472 3.91735 13.1799 3.60909C13.401 4.0935 17.5139 14.178 17.5139 14.178Z" fill="white"/>
</g>
<defs>
<clipPath id="clip0_896_2720">
<rect width="83.142" height="26.0512" fill="white"/>
</clipPath>
</defs>
</svg>
