<svg width="102" height="40" viewBox="0 0 102 40" fill="none" xmlns="http://www.w3.org/2000/svg">
<g clip-path="url(#clip0_2118_3018)">
<path d="M41.2825 4.54933V0.469443H26.691V20.985H41.2705V16.9341H31.2067V12.6784H40.2672V8.77433H31.2067V4.54933H41.2808H41.2825ZM58.7672 0.469443V13.6753L48.8389 0.469443H44.6131V20.985H49.127V8.12905L58.7672 20.985H63.2829V0.469443H58.7672ZM71.7654 16.9051V0.469443H67.2497V20.9833H80.392V16.9034H71.7654V16.9051ZM18.2085 0.469443L11.4152 13.6275L4.622 0.469443H0.0874634V20.985H4.60142V10.3039L10.117 20.985H12.7135L18.2085 10.3414V20.985H22.7241V0.469443H18.2085ZM90.9789 17.1833C87.3893 17.1833 84.4806 14.2335 84.4806 10.5958C84.4806 6.95801 87.3893 4.00819 90.9789 4.00819C94.5685 4.00819 97.4771 6.95801 97.4771 10.5958C97.4771 14.2335 94.5667 17.1833 90.9789 17.1833ZM90.9789 0C85.2061 0 80.5275 4.74394 80.5275 10.5958C80.5275 16.4476 85.2061 21.1915 90.9789 21.1915C96.7517 21.1915 101.429 16.4476 101.429 10.5958C101.429 4.74394 96.75 0 90.9789 0Z" fill="#FF8200"/>
<path d="M7.46211 30.7033L4.5054 38.3783H4.4488L1.40634 30.7033H0.133789L3.74907 39.8259H5.09023L8.71923 30.7033H7.46211Z" fill="#262626"/>
<path d="M21.1017 39.8259H14.6892V30.7033H20.9748V31.7463H15.8897V34.6125H19.9321V35.6419H15.8897V38.7829H21.1017V39.8259Z" fill="#262626"/>
<path d="M33.6575 37.6835V30.7033H34.8151V39.8259H33.829L28.6016 32.4991V39.8259H27.4439V30.7033H28.7302L33.6575 37.6835Z" fill="#262626"/>
<path d="M44.1843 39.8259V31.7463H40.9138V30.7033H48.7394V31.7463H45.4123V39.8259H44.1843Z" fill="#262626"/>
<path d="M54.4385 36.3366V30.7033H55.6664V36.3503C55.6664 38.0881 56.5085 38.9433 58.0812 38.9433C59.6539 38.9433 60.5234 38.0881 60.5234 36.3656V30.7033H61.7376V36.3366C61.7376 39.0014 60.1084 40 58.0812 40C56.054 40 54.4385 39.0014 54.4385 36.3366Z" fill="#262626"/>
<path d="M71.8649 35.1485C73.393 35.1485 74.079 34.5698 74.079 33.4397C74.079 32.3967 73.393 31.731 71.8649 31.731H69.493V35.1485H71.8649ZM74.1648 39.8259C73.9933 39.5801 73.8646 38.9143 73.7926 37.8423C73.736 36.8283 73.2644 36.1489 72.0364 36.1489H69.4947V39.8276H68.2805V30.705H71.9369C74.2231 30.705 75.3224 31.7771 75.3224 33.3988C75.3224 34.8037 74.3791 35.5411 73.2798 35.6726C74.3791 35.8894 74.9074 36.5705 74.9931 37.6425C75.108 38.9758 75.1509 39.4964 75.451 39.8293H74.1648V39.8259Z" fill="#262626"/>
<path d="M88.1765 39.8259H81.7623V30.7033H88.0479V31.7463H82.9628V34.6125H87.0052V35.6419H82.9628V38.7829H88.1765V39.8259Z" fill="#262626"/>
<path d="M94.6473 36.4954C94.7194 38.1615 95.8462 39.015 97.3605 39.015C98.7034 39.015 99.5455 38.4363 99.5455 37.436C99.5455 36.5961 99.0035 36.1898 97.8322 35.9594L96.0468 35.6111C94.7194 35.3499 93.8036 34.6261 93.8036 33.2076C93.8036 31.6149 95.0469 30.5292 97.0175 30.5292C99.2745 30.5292 100.574 31.7463 100.588 33.8016L99.4597 33.8597C99.4168 32.354 98.5165 31.4988 97.0312 31.4988C95.7312 31.4988 95.0024 32.1219 95.0024 33.1342C95.0024 34.0321 95.5872 34.3223 96.6299 34.5237L98.2575 34.8429C99.9005 35.1622 100.729 35.886 100.729 37.3489C100.729 39.0287 99.3002 39.9983 97.3571 39.9983C95.143 39.9983 93.5291 38.7675 93.5291 36.5671L94.6439 36.4954H94.6473Z" fill="#262626"/>
<path d="M100.811 25.4473H0V26.2274H100.811V25.4473Z" fill="#262626"/>
</g>
<defs>
<clipPath id="clip0_2118_3018">
<rect width="101.429" height="40" fill="white"/>
</clipPath>
</defs>
</svg>
