<?xml version="1.0" encoding="UTF-8" standalone="no"?>
<!-- Created with Inkscape (http://www.inkscape.org/) -->

<svg
   xmlns:dc="http://purl.org/dc/elements/1.1/"
   xmlns:cc="http://creativecommons.org/ns#"
   xmlns:rdf="http://www.w3.org/1999/02/22-rdf-syntax-ns#"
   xmlns:svg="http://www.w3.org/2000/svg"
   xmlns="http://www.w3.org/2000/svg"
   xmlns:sodipodi="http://sodipodi.sourceforge.net/DTD/sodipodi-0.dtd"
   xmlns:inkscape="http://www.inkscape.org/namespaces/inkscape"
   width="184.64621mm"
   height="59.499741mm"
   viewBox="0 0 184.64621 59.499741"
   version="1.1"
   id="svg12322"
   inkscape:version="0.92.0 r15299"
   sodipodi:docname="allbirds.svg">
  <defs
     id="defs12316" />
  <sodipodi:namedview
     id="base"
     pagecolor="#ffffff"
     bordercolor="#666666"
     borderopacity="1.0"
     inkscape:pageopacity="0.0"
     inkscape:pageshadow="2"
     inkscape:zoom="1.2923286"
     inkscape:cx="347.04795"
     inkscape:cy="110.55069"
     inkscape:document-units="mm"
     inkscape:current-layer="layer1"
     showgrid="false"
     fit-margin-top="0"
     fit-margin-left="0"
     fit-margin-right="0"
     fit-margin-bottom="0"
     inkscape:window-width="1280"
     inkscape:window-height="744"
     inkscape:window-x="-4"
     inkscape:window-y="-4"
     inkscape:window-maximized="1" />
  <metadata
     id="metadata12319">
    <rdf:RDF>
      <cc:Work
         rdf:about="">
        <dc:format>image/svg+xml</dc:format>
        <dc:type
           rdf:resource="http://purl.org/dc/dcmitype/StillImage" />
        <dc:title></dc:title>
      </cc:Work>
    </rdf:RDF>
  </metadata>
  <g
     inkscape:label="Layer 1"
     inkscape:groupmode="layer"
     id="layer1"
     transform="translate(-4.9388051,-186.61918)">
    <g
       transform="translate(-433.52249,-287.23665)"
       id="g12303">
      <path
         style="stroke-width:0.26458332"
         id="path12282"
         d="m 542.9679,490.31019 c 0.10584,0 0.23813,0 0.34396,-0.0265 1.74625,-0.1852 3.30729,-1.61395 3.57188,-3.38666 0.26458,-1.74625 -0.84667,-3.20146 -2.54,-3.38667 -0.10584,0 -0.23813,-0.0265 -0.34396,-0.0265 -0.10583,0 -0.23813,0 -0.34396,0.0265 -1.74625,0.18521 -3.30729,1.61396 -3.57187,3.38667 -0.1323,0.92604 0.10583,1.74625 0.60854,2.38125 0.52916,0.635 1.32291,1.03187 2.27541,1.03187 z"
         inkscape:connector-curvature="0" />
      <path
         style="stroke-width:0.26458332"
         id="path12284"
         d="m 622.60749,518.72644 c 0,-4.65666 -2.27542,-8.91646 -4.28625,-12.67354 -1.7198,-3.20146 -3.25438,-6.11187 -2.8575,-8.28146 0.29104,-1.56104 1.40229,-2.46062 3.12208,-2.56646 0,0 0,0 0,0 0.0529,0 0.10583,-0.0264 0.15875,-0.0264 0.0794,-0.0265 0.15875,-0.0794 0.23812,-0.1323 0.0794,-0.0529 0.1323,-0.13229 0.15875,-0.21166 0,-0.0265 0.0265,-0.0265 0.0265,-0.0529 l 0.84667,-2.19604 c 0.0794,-0.23813 0.10583,-0.39688 0.0265,-0.55563 -0.0529,-0.10583 -0.13229,-0.21166 -0.26459,-0.3175 -0.15875,-0.13229 -0.42333,-0.23812 -0.76729,-0.34395 -0.47625,-0.15875 -1.08479,-0.26459 -1.64041,-0.26459 -2.48709,0 -5.5298,0.82021 -8.17563,7.40834 -0.10583,0.26458 -5.21229,13.49375 -5.37104,13.91708 -0.635,1.56104 -1.98438,3.43958 -4.84188,3.43958 -1.24354,0 -2.24895,-0.47625 -2.80458,-1.27 -0.10583,-0.15875 -0.18521,-0.3175 -0.26458,-0.47625 -0.21167,-0.52916 -0.29104,-1.16416 -0.15875,-1.85208 0.0529,-0.23813 0.10583,-0.50271 0.18521,-0.76729 0.13229,-0.44979 0.3175,-0.9525 0.52916,-1.45521 1.95792,-5.00063 8.91646,-22.80708 11.05959,-28.28396 0.26458,-0.68792 -0.10584,-1.24354 -0.84667,-1.24354 h -2.46063 c -0.26458,0 -0.55562,0.0794 -0.79375,0.21167 -0.44979,0.21166 -0.8202,0.60854 -1.00541,1.03187 -0.9525,2.40771 -2.30188,5.90021 -3.73063,9.57792 -1.11125,2.83104 -2.24896,5.76791 -3.30729,8.44021 -0.3175,-0.52917 -0.68792,-1.03188 -1.08479,-1.50813 -0.42333,-0.47625 -0.87313,-0.92604 -1.34938,-1.32292 -2.06375,-1.69333 -4.68312,-2.61937 -7.56708,-2.61937 -3.54542,0 -6.95854,1.42875 -9.63083,3.75708 -0.10584,0.0794 -0.18521,0.18521 -0.29104,0.26459 -0.0794,0.0529 -0.1323,0.13229 -0.21167,0.1852 -1.74625,1.64042 -3.12208,3.67771 -3.96875,5.92667 0,0.0265 -0.0265,0.0529 -0.0265,0.10583 -0.10583,0.29105 -0.18521,0.58209 -0.29104,0.89959 -0.15875,0.55562 -0.29104,1.11125 -0.37042,1.69333 -0.0794,0.52917 -0.13229,1.05833 -0.15875,1.5875 -0.0529,1.53458 0.18521,3.04271 0.66146,4.41854 -0.23812,0.39688 -0.55562,0.76729 -0.89958,1.11125 -0.97896,0.92604 -2.27542,1.53459 -3.62479,1.64042 -0.13229,0 -0.23813,0 -0.37042,0 -0.52917,0 -1.03187,-0.10583 -1.48167,-0.26458 -0.55562,-0.21167 -1.03187,-0.55563 -1.34937,-1.00542 -0.60854,-0.87313 -0.60854,-2.14313 -0.0529,-3.59833 0.13229,-0.37042 0.97896,-2.61938 1.74625,-4.63021 0.58209,-1.56104 1.11125,-3.01625 1.21709,-3.30729 0.0529,-0.15875 0.15875,-0.39688 0.23812,-0.68792 0.13229,-0.55563 0.21167,-1.32292 -0.15875,-2.11667 -0.15875,-0.3175 -0.34396,-0.58208 -0.55562,-0.82021 -0.42334,-0.44979 -0.97896,-0.71437 -1.50813,-0.92604 -0.21167,-0.0794 -0.42333,-0.15875 -0.635,-0.21166 -0.37042,-0.10584 -0.76729,-0.26459 -1.21708,-0.4498 -0.0265,0 -0.0265,-0.0265 -0.0529,-0.0265 -0.74083,-0.3175 -4.31271,-1.98438 -4.31271,-5.15938 0,-0.0794 0,-0.15875 0,-0.21167 0,-0.0265 0,-0.0529 0,-0.0794 0,-0.0265 0,-0.0794 0,-0.10583 -0.0529,-0.47625 -0.21166,-0.7673 -0.42333,-0.92605 -0.0265,0 -0.0265,-0.0264 -0.0529,-0.0264 0,0 0,0 -0.0265,0 -0.0264,-0.0265 -0.0529,-0.0265 -0.0794,-0.0529 0,0 0,0 -0.0265,0 0,0 0,0 0,0 0,0 0,0 -0.0265,0 -0.0265,0 -0.0265,-0.0265 -0.0529,-0.0265 0,0 0,0 0,0 -0.1323,-0.0529 -0.26459,-0.0794 -0.42334,-0.0794 h -2.43416 c -0.50271,0 -1.05834,0.26458 -1.42875,0.66145 -0.15875,0.15875 -0.29105,0.37042 -0.37042,0.58209 -0.52917,1.34937 -1.16417,2.96333 -1.82563,4.68312 -2.32833,5.97959 -5.10645,13.14979 -5.9002,15.18709 -0.0265,0.0794 -0.0529,0.15875 -0.0794,0.23812 -0.635,1.56104 -1.98437,3.43958 -4.86833,3.43958 -1.24354,0 -2.27542,-0.47625 -2.80459,-1.27 -0.3175,-0.47625 -0.47625,-1.08479 -0.44979,-1.79916 0.0265,-0.55563 0.15875,-1.16417 0.39688,-1.79917 0.50271,-1.32292 1.5875,-4.07458 2.72521,-6.985 1.08479,-2.77812 2.2225,-5.74146 3.01625,-7.75229 0.26458,-0.68792 -0.10584,-1.24354 -0.84667,-1.24354 v 0 h -2.46063 -0.23812 v 0 c -0.15875,0 -0.34396,0.0265 -0.52917,0.0794 -0.0265,0 -0.0265,0 -0.0529,0 0,0 0,0 0,0 -0.58209,0.15875 -1.16417,0.55563 -1.50813,0.97896 -1.27,1.53458 -2.91042,2.77813 -4.70958,3.67771 -1.79917,0.89958 -3.73063,1.48167 -5.58271,1.69333 -0.26458,-0.68791 -0.60854,-1.37583 -1.03188,-2.01083 -0.0264,-0.0265 -0.0264,-0.0529 -0.0529,-0.0794 -0.26459,-0.39687 -0.52917,-0.76729 -0.84667,-1.1377 -2.19604,-2.54 -5.34458,-3.9423 -8.91646,-3.9423 -1.905,0 -3.75708,0.42334 -5.50333,1.16417 0.87312,-2.24896 1.74625,-4.52437 2.56646,-6.6675 1.00541,-2.61937 1.95791,-5.05354 2.72521,-7.06437 0.13229,-0.3175 0.10583,-0.58209 0,-0.82021 -0.1323,-0.26459 -0.42334,-0.42334 -0.82021,-0.42334 h -0.0265 -2.43417 -0.0265 c -0.29104,0 -0.60854,0.10584 -0.89958,0.26459 -0.34396,0.18521 -0.635,0.44979 -0.79375,0.76729 -0.0265,0.0794 -0.0794,0.13229 -0.10583,0.21167 -3.14854,8.01687 -8.17563,21.00791 -10.55688,27.22562 -0.66146,1.69333 -1.11125,2.91042 -1.29646,3.36021 -0.635,1.56104 -1.98437,3.43958 -4.84187,3.43958 -0.26458,0 -0.50271,-0.0265 -0.71438,-0.0529 -0.89958,-0.15875 -1.66687,-0.55563 -2.0902,-1.21709 -0.0794,-0.13229 -0.15875,-0.26458 -0.23813,-0.42333 -0.23812,-0.52917 -0.3175,-1.19063 -0.18521,-1.905 0.0529,-0.34396 0.23813,-0.89958 0.44979,-1.45521 0.29105,-0.79375 0.58209,-1.56104 0.58209,-1.56104 0,0 1.05833,-2.69875 2.56646,-6.61458 0.15875,-0.42334 0.34395,-0.87313 0.52916,-1.34938 0.0265,-0.0529 0.0529,-0.10583 0.0529,-0.15875 2.32833,-5.97958 5.45042,-14.04937 7.69937,-19.87021 0.89959,-2.35479 1.66688,-4.33916 2.19605,-5.66208 0.26458,-0.68792 -0.10584,-1.24354 -0.84667,-1.24354 h -2.46063 c -0.74083,0 -1.53458,0.55562 -1.79916,1.24354 -0.29104,0.74083 -2.88396,7.46125 -5.79438,14.97542 -3.75708,9.68375 -8.01687,20.69041 -8.46666,21.88104 -0.10584,0.23812 -0.21167,0.47625 -0.34396,0.71437 -0.39688,0.76729 -1.00542,1.50813 -1.85209,2.03729 -0.68791,0.42334 -1.5875,0.68792 -2.67229,0.71438 -1.00541,0 -1.85208,-0.29104 -2.43416,-0.84667 -0.1323,-0.13229 -0.26459,-0.26458 -0.39688,-0.42333 -0.39687,-0.60854 -0.55562,-1.37583 -0.39687,-2.27542 0,0 0,-0.0265 0,-0.0265 0.13229,-0.76729 1.16416,-3.46604 1.16416,-3.51895 0.66146,-1.69334 1.42875,-3.70417 2.24896,-5.8473 2.72521,-7.01145 6.05896,-15.68979 8.20208,-21.16666 0.0529,-0.15875 0.0794,-0.3175 0.0794,-0.47625 -0.0265,-0.21167 -0.10583,-0.42334 -0.26458,-0.55563 -0.15875,-0.13229 -0.37042,-0.21166 -0.66146,-0.21166 h -2.46063 c -0.26458,0 -0.55562,0.0794 -0.82021,0.21166 -0.37041,0.18521 -0.68791,0.47625 -0.87312,0.82021 -0.0265,0.0529 -0.0794,0.13229 -0.10583,0.18521 -0.635,1.61396 -1.32292,3.41312 -2.06375,5.31812 -0.79375,2.06375 -1.64042,4.2598 -2.51355,6.45584 -3.38666,8.73125 -6.74687,17.48896 -7.3025,18.89125 -0.1852,0.44979 -0.42333,0.89958 -0.71437,1.34937 -0.79375,1.13771 -2.06375,2.09021 -4.15396,2.09021 -0.76729,0 -1.45521,-0.18521 -2.01083,-0.50271 -0.3175,-0.21166 -0.60854,-0.44979 -0.79375,-0.76729 -0.13229,-0.21167 -0.23813,-0.42333 -0.3175,-0.66146 -0.15875,-0.47625 -0.18521,-1.03187 -0.0794,-1.64041 0.13229,-0.74084 0.87313,-2.6723 1.00542,-2.96334 0,-0.0265 0.0265,-0.0529 0.0265,-0.0529 l 5.05354,-13.0175 c 0.26458,-0.68792 -0.10583,-1.24355 -0.84667,-1.24355 h -2.46062 v 0 c -0.44979,0 -0.92604,0.21167 -1.29646,0.52917 0,0 0,0 0,0 -0.0265,0 -0.0265,0.0265 -0.0265,0.0265 -0.21167,0.18521 -0.37042,0.42333 -0.44979,0.66146 l -0.50271,1.32291 -0.79375,2.06375 c -0.15875,-0.23812 -0.3175,-0.47625 -0.47625,-0.71437 0,0 0,0 0,0 -0.15875,-0.23813 -0.34396,-0.44979 -0.52917,-0.66146 0,0 0,0 0,0 -0.79375,-0.92604 -1.74625,-1.71979 -2.77812,-2.32833 -1.77271,-1.05834 -3.86292,-1.61396 -6.11188,-1.61396 -5.52979,0 -10.76854,3.4925 -13.335,8.41375 -0.71437,1.37583 -1.21708,2.8575 -1.4552,4.39208 -0.55563,3.59834 0.37041,7.01146 2.59291,9.57792 0.68792,0.79375 1.45521,1.48167 2.32834,2.03729 0.15875,0.10583 0.34395,0.21167 0.52916,0.3175 1.77271,1.03188 3.83646,1.5875 6.05896,1.5875 v 0 c 0,0 0,0 0,0 3.57188,0 7.03792,-1.48167 9.73667,-3.83646 0,0 0,0 0,0 0.0794,0.15875 0.18521,0.3175 0.29104,0.47625 0.0529,0.0794 0.13229,0.18521 0.18521,0.26459 0,0.0265 0.0265,0.0265 0.0265,0.0529 0.0529,0.0794 0.13229,0.15875 0.1852,0.23813 0.0529,0.0529 0.10584,0.10583 0.1323,0.15875 0.0265,0.0529 0.0794,0.0794 0.13229,0.13229 0.0794,0.0794 0.15875,0.15875 0.21166,0.23812 0.0265,0.0265 0.0529,0.0529 0.0794,0.0794 0.10583,0.0794 0.18521,0.18521 0.29104,0.26458 0,0 0,0 0.0265,0.0265 0.89958,0.76729 2.03729,1.37583 3.36021,1.69333 0.0265,0 0.0529,0.0265 0.0794,0.0265 0.13229,0.0265 0.26459,0.0529 0.39688,0.0794 0.0529,0 0.10583,0.0265 0.18521,0.0265 0.10583,0.0264 0.21166,0.0264 0.34395,0.0529 0.10584,0 0.18521,0.0265 0.29105,0.0265 0.0794,0 0.15875,0.0265 0.26458,0.0265 0.18521,0 0.37042,0.0265 0.58208,0.0265 0,0 0,0 0,0 v 0 c 0,0 0,0 0,0 1.37584,0 2.67229,-0.26459 3.86292,-0.76729 0.44979,-0.18521 0.87312,-0.39688 1.27,-0.66146 0.13229,-0.0794 0.26458,-0.15875 0.39687,-0.26459 0.52917,-0.37041 1.03188,-0.76729 1.48167,-1.24354 0.15875,0.21167 0.34396,0.39688 0.52917,0.58209 1.21708,1.24354 2.8575,2.01083 4.73604,2.24895 0.0529,0 0.13229,0.0265 0.18521,0.0265 0.0529,0 0.10583,0 0.15875,0 0.10583,0 0.21166,0.0265 0.3175,0.0265 0.0529,0 0.10583,0 0.13229,0 0.10583,0 0.23812,0 0.34396,0 0,0 0,0 0,0 0,0 0,0 0,0 v 0 c 0,0 0,0 0,0 v 0 c 2.75166,0 5.18583,-1.03187 6.985,-2.88396 0.68791,0.84667 1.56104,1.53459 2.56646,2.03729 1.1377,0.55563 2.43416,0.84667 3.81,0.84667 0,0 0,0 0,0 0,0 0,0 0,0 0,0 0,0 0,0 0,0 0,0 0,0 0,0 0,0 0,0 v 0 0 c 0.71437,0 1.40229,-0.0794 2.06375,-0.21167 2.88395,-0.58208 5.2652,-2.4077 6.72041,-5.15937 0.0794,0.13229 0.15875,0.23812 0.23813,0.37042 0.10583,0.15875 0.21166,0.3175 0.3175,0.47625 0.15875,0.21166 0.3175,0.39687 0.47625,0.60854 2.19604,2.54 5.34458,3.94229 8.91646,3.94229 v 0 0 c 4.86833,0 9.525,-2.72521 12.30312,-6.69396 1.27,-1.82562 2.14313,-3.88937 2.48708,-6.08542 0.0794,-0.55562 0.1323,-1.11125 0.15875,-1.66687 0.47625,-0.0529 0.9525,-0.13229 1.4023,-0.23813 2.03729,-0.39687 3.94229,-1.05833 5.63562,-1.95791 -0.0529,0.13229 -0.10583,0.29104 -0.15875,0.42333 -0.79375,2.09021 -1.50812,3.88938 -1.87854,4.86833 -1.16417,2.93688 -0.97896,5.79438 0.52917,8.01688 0.55562,0.82021 1.27,1.50812 2.0902,2.03729 1.32292,0.84667 2.91042,1.32292 4.65667,1.32292 v 0 0 c 4.20688,0 7.67292,-2.40771 9.31333,-6.48229 0.21167,-0.52917 0.635,-1.64042 1.19063,-3.09563 1.16417,-2.98979 2.91042,-7.48771 4.49792,-11.56229 0.13229,-0.37042 0.29104,-0.74083 0.42333,-1.08479 1.37583,1.71979 3.22792,3.01625 5.02708,3.78354 0.10584,0.0529 0.18521,0.0794 0.29104,0.13229 0.21167,0.0794 0.42334,0.15875 0.60855,0.23813 -0.89959,2.43416 -2.32834,6.29708 -2.51355,6.72041 -0.71437,1.82563 -0.92604,3.59834 -0.60854,5.21229 0.18521,1.00542 0.58209,1.95792 1.13771,2.80459 0.37042,0.52916 0.79375,1.00541 1.27,1.42875 1.32292,1.13771 3.04271,1.82562 4.94771,1.93146 0.18521,0 0.34396,0.0264 0.52917,0.0264 0.29104,0 0.58208,-0.0264 0.87312,-0.0529 0.0529,0 0.13229,0 0.18521,-0.0265 0.0265,0 0.0529,0 0.0794,0 1.21709,-0.13229 2.38125,-0.50271 3.46605,-1.03188 1.11124,-0.55562 2.11666,-1.29645 2.96333,-2.16958 1.66687,1.64042 3.81,2.69875 6.21771,3.09563 0.66145,0.10583 1.34937,0.15875 2.06375,0.15875 v 0 0 c 0.89958,0 1.79916,-0.10584 2.67229,-0.26459 2.40771,-0.47625 4.68312,-1.61396 6.58812,-3.175 0.18521,-0.13229 0.34396,-0.29104 0.50271,-0.44979 0.10583,0.18521 0.21167,0.37042 0.3175,0.52917 0.92604,1.34937 2.24896,2.32833 3.81,2.88396 0.0794,0.0264 0.15875,0.0529 0.21167,0.0794 0.0794,0.0265 0.18521,0.0529 0.26458,0.0794 0.10583,0.0265 0.18521,0.0529 0.29104,0.0794 0.0794,0.0265 0.15875,0.0265 0.23813,0.0529 0.10583,0.0265 0.18521,0.0529 0.29104,0.0529 0.0794,0.0265 0.15875,0.0265 0.23812,0.0529 0.10584,0.0265 0.18521,0.0265 0.29105,0.0265 0.10583,0 0.21166,0.0265 0.3175,0.0265 0.0794,0 0.15875,0.0265 0.23812,0.0265 0.18521,0 0.37042,0.0264 0.58208,0.0264 0,0 0,0 0,0 0,0 0,0 0,0 v 0 c 0,0 0,0 0,0 0,0 0,0 0,0 v 0 0 c 4.20688,0 7.67292,-2.4077 9.31334,-6.48229 0.0794,-0.23812 1.61396,-4.07458 2.8575,-7.24958 0.37041,-0.9525 0.71437,-1.85208 0.97896,-2.56646 0.13229,0.29104 0.29104,0.60854 0.42333,0.89958 0.50271,1.00542 1.03187,2.0373 1.5875,3.09563 0.44979,0.84667 0.92604,1.71979 1.34937,2.59292 1.29646,2.59291 2.38125,5.23875 2.38125,7.83166 0,7.64646 -5.18583,8.99584 -6.77333,9.23396 -1.05833,0.15875 -1.85208,0.97896 -2.01083,1.98438 -0.0265,0.23812 -0.0529,0.47625 0,0.71437 0,0.0794 0.0265,0.15875 0.0529,0.21167 0.26459,1.05833 1.21709,1.82562 2.30188,1.82562 0.0529,0 0.10583,0 0.18521,0 0.0529,0 0.10583,0 0.18521,0 1.24354,-0.18521 2.56645,-0.58208 3.81,-1.19062 3.6777,-2.06375 6.985,-6.08542 6.985,-12.93813 z m -30.48,-11.61521 c -0.4498,3.12209 -2.43417,5.87375 -5.02709,7.4348 -0.0265,0.0265 -0.0794,0.0529 -0.10583,0.0529 0,0 -0.0265,0 -0.0265,0.0265 -1.37583,0.79375 -2.91042,1.24354 -4.49792,1.24354 -0.74083,0 -1.4552,-0.10583 -2.11666,-0.3175 -1.16417,-0.37041 -2.19604,-1.03187 -2.96334,-1.95791 -0.76729,-0.92605 -1.24354,-2.06375 -1.42875,-3.33375 0,0 0,-0.0265 0,-0.0265 0,0 0,0 0,0 -0.10583,-0.76729 -0.10583,-1.56104 0.0265,-2.38125 0.18521,-1.21709 0.58209,-2.38125 1.19063,-3.43959 0.79375,-1.42875 1.905,-2.64583 3.20146,-3.57187 1.56104,-1.08479 3.38666,-1.74625 5.2652,-1.74625 1.27,0 2.43417,0.29104 3.41313,0.87312 0.635,0.37042 1.19062,0.84667 1.66687,1.4023 0.23813,0.29104 0.4498,0.58208 0.60855,0.89958 0.60854,1.05833 0.89958,2.30187 0.89958,3.62479 0,0.39688 -0.0265,0.79375 -0.10583,1.21708 z m -81.35938,8.51959 c -1.29646,-0.34396 -2.40771,-1.03188 -3.22791,-2.06375 -1.24355,-1.50813 -1.74625,-3.54542 -1.42875,-5.74146 0,0 0,-0.0265 0,-0.0265 0.0794,-0.55562 0.21166,-1.03187 0.34395,-1.42875 0.18521,-0.47625 0.37042,-0.97896 0.58209,-1.48167 0,0 0,0 0,0 0.0265,-0.0794 0.0794,-0.13229 0.10583,-0.21166 0.0794,-0.13229 0.13229,-0.26459 0.21167,-0.39688 0.0265,-0.0529 0.0529,-0.0794 0.0794,-0.13229 0.58209,-0.97896 1.29646,-1.85208 2.11667,-2.59292 1.74625,-1.53458 3.94229,-2.48708 6.21771,-2.48708 1.03187,0 2.01083,0.21167 2.8575,0.58208 0.87312,0.39688 1.61396,0.9525 2.2225,1.69334 1.24354,1.50812 1.74625,3.54541 1.42875,5.76791 -0.71438,4.81542 -5.05354,8.75771 -9.68375,8.75771 -0.635,0 -1.24354,-0.0794 -1.82563,-0.23812 z m -59.87521,0.23812 c -2.0902,0 -3.88937,-0.82021 -5.10645,-2.27541 -0.1323,-0.15875 -0.23813,-0.3175 -0.34396,-0.47625 -1.00542,-1.45521 -1.37584,-3.3073 -1.08479,-5.29167 0.71437,-4.81542 5.08,-8.75771 9.73666,-8.75771 2.09021,0 3.88938,0.82021 5.10646,2.27542 1.24354,1.50812 1.77271,3.54541 1.42875,5.76791 -0.0529,0.37042 -0.13229,0.74084 -0.23812,1.11125 -1.16417,4.28625 -5.2123,7.64646 -9.49855,7.64646 z"
         inkscape:connector-curvature="0" />
    </g>
  </g>
</svg>
