<svg version="1.1" id="Layer_1" xmlns="http://www.w3.org/2000/svg" xmlns:xlink="http://www.w3.org/1999/xlink" x="0px" y="0px" viewBox="0 0 74.3 88.6" style="enable-background:new 0 0 74.3 88.6;" xml:space="preserve">
 <style type="text/css">
  .st0{fill:#01A1DD;}
	.st1{fill:#555555;}
 </style>
 <g>
  <path class="st0" d="M35.1,2.8c0,0,0.8,0.1,0.8,0.1c0,0,0.2,0.5,0.2,0.5C37.8,3.5,39.7,3,39.8,3c0.2-0.2,0.7-0.8,0.2-1.1
		c-2,0.4-5-0.3-4.6-0.1c-0.4-0.1-0.9-0.4-1.4-0.9c-0.9-1.5-1.4-0.5-1.4,0C32.6,2.7,33.1,2.5,35.1,2.8">
  </path>
  <path class="st0" d="M48.9,28c-0.1-0.8-0.2-1.5-0.4-2.2c-1-3.3-2.2-6.8-5.5-8.3c-1.4-0.5-4.1-0.4-4.4-3.7c0-0.9,0-10,0-10l-4.2,0.9
		c0,0,0,0.6,0,0.6c0,0-0.1,1.9-0.1,1.9c0,0,0,0.9,0,2c0.1,5.1,0.4,8.3-5.2,10.4c-3.4,1.3-3.7,2.8-4,6.8c0,0.3-0.1,0.6-0.1,0.8
		c0-0.1-1.1,11,2.6,28.8c0,0,0.6,2.9,0.6,3.3c0,0.2,0.3,0.5,0.8,0.9c6.4,1.5,7.7,0.4,11.1,0.9c3.4,0.5,6.4-1.7,6.5-1.8
		c0.3-0.1,1.4-2.4,1.6-5.2C49.6,46.3,49.2,33.9,48.9,28">
  </path>
  <path class="st1" d="M4.7,72.5c0.6,0.2,1,0.8,1,1.5c0,1-0.6,2.3-2.7,2.3H0v-7.6h2.9c2.1,0,2.7,1.3,2.7,2.3
		C5.6,71.6,5.2,72.3,4.7,72.5 M3.9,71.1c0-0.2-0.1-0.7-0.9-0.7H1.7v1.5H3C3.8,71.8,3.9,71.3,3.9,71.1 M3.9,74c0-0.2-0.1-0.7-0.9-0.7
		H1.7v1.4H3C3.8,74.7,3.9,74.2,3.9,74">
  </path>
  <polygon class="st1" points="9.4,74.7 12.1,74.7 12.1,76.3 7.6,76.3 7.6,68.8 9.4,68.8 	">
  </polygon>
  <path class="st1" d="M17.8,73.4v-4.6h1.7v4.6c0,1.3-0.8,3-3,3s-3-1.8-3-3v-4.6h1.7v4.6c0,0.4,0.3,1.4,1.3,1.4S17.8,73.8,17.8,73.4">
  </path>
  <polygon class="st1" points="23.6,73.4 23.6,74.7 27.1,74.7 27.1,76.3 21.9,76.3 21.9,68.8 27.1,68.8 27.1,70.4 23.6,70.4 
		23.6,71.8 26.4,71.8 26.4,73.4 	">
  </polygon>
  <path class="st1" d="M37.3,72.5c0.6,0.2,1,0.8,1,1.5c0,1-0.6,2.3-2.7,2.3h-2.9v-7.6h2.9c2.1,0,2.7,1.3,2.7,2.3
		C38.2,71.6,37.8,72.3,37.3,72.5 M36.5,71.1c0-0.2-0.1-0.7-0.9-0.7h-1.3v1.5h1.3C36.4,71.8,36.5,71.3,36.5,71.1 M36.5,74
		c0-0.2-0.1-0.7-0.9-0.7h-1.3v1.4h1.3C36.4,74.7,36.5,74.2,36.5,74">
  </path>
  <path class="st1" d="M47.3,72.5c0,1.6-0.9,3.9-3.7,3.9c-2.9,0-3.8-2.3-3.8-3.9c0-1.6,0.9-3.9,3.8-3.9C46.4,68.6,47.3,71,47.3,72.5
		 M45.5,72.5c0-0.6-0.2-2.3-2-2.3c-1.7,0-2,1.7-2,2.3c0,0.6,0.2,2.3,2,2.3C45.3,74.8,45.5,73.1,45.5,72.5">
  </path>
  <polygon class="st1" points="50.1,70.4 48.2,70.4 48.2,68.8 53.9,68.8 53.9,70.4 51.9,70.4 51.9,76.3 50.1,76.3 	">
  </polygon>
  <polygon class="st1" points="57.1,70.4 55.1,70.4 55.1,68.8 60.8,68.8 60.8,70.4 58.8,70.4 58.8,76.3 57.1,76.3 	">
  </polygon>
  <polygon class="st1" points="64.4,74.7 67.1,74.7 67.1,76.3 62.7,76.3 62.7,68.8 64.4,68.8 	">
  </polygon>
  <polygon class="st1" points="70.8,73.4 70.8,74.7 74.3,74.7 74.3,76.3 69.1,76.3 69.1,68.8 74.3,68.8 74.3,70.4 70.8,70.4 
		70.8,71.8 73.6,71.8 73.6,73.4 	">
  </polygon>
  <path class="st1" d="M20.3,83.4c-0.4-0.5-1.2-1-1.9-1c-1.7,0-2,1.7-2,2.2c0,0.6,0.2,2.2,2,2.2c0.7,0,1.5-0.4,2-0.9l1,1.2
		c-0.8,0.8-1.8,1.4-3,1.4c-2.9,0-3.8-2.3-3.8-3.9c0-1.6,0.9-3.9,3.8-3.9c1.3,0,2.2,0.6,3,1.5L20.3,83.4z">
  </path>
  <path class="st1" d="M30.4,84.7c0,1.6-0.9,3.9-3.7,3.9c-2.9,0-3.8-2.3-3.8-3.9c0-1.6,0.9-3.9,3.8-3.9
		C29.5,80.8,30.4,83.1,30.4,84.7 M28.6,84.7c0-0.6-0.2-2.3-2-2.3c-1.7,0-2,1.7-2,2.3c0,0.6,0.2,2.3,2,2.3
		C28.4,87,28.6,85.2,28.6,84.7">
  </path>
  <polygon class="st1" points="34.1,85.5 34.1,88.5 32.4,88.5 32.4,80.9 37.6,80.9 37.6,82.5 34.1,82.5 34.1,83.9 36.9,83.9 
		36.9,85.5 	">
  </polygon>
  <polygon class="st1" points="41.3,85.5 41.3,88.5 39.6,88.5 39.6,80.9 44.8,80.9 44.8,82.5 41.3,82.5 41.3,83.9 44.1,83.9 
		44.1,85.5 	">
  </polygon>
  <polygon class="st1" points="48.5,85.5 48.5,86.9 52,86.9 52,88.5 46.8,88.5 46.8,80.9 52,80.9 52,82.5 48.5,82.5 48.5,83.9 
		51.3,83.9 51.3,85.5 	">
  </polygon>
  <polygon class="st1" points="55.8,85.5 55.8,86.9 59.3,86.9 59.3,88.5 54,88.5 54,80.9 59.3,80.9 59.3,82.5 55.8,82.5 55.8,83.9 
		58.5,83.9 58.5,85.5 	">
  </polygon>
 </g>
</svg>