<svg id="Layer_1" data-name="Layer 1" xmlns="http://www.w3.org/2000/svg" width="294.5" height="77.48" viewBox="0 0 294.5 77.48"><title>Brex logo - Brandlogos.net</title><path d="M436,361.27c-5.23,0-9.25,1.86-13,5.75v-4.84H412.77v47.65h11V382.19c0-6.33,3.77-10.33,9.48-10.33a13.56,13.56,0,0,1,2.6.26L443.56,362a46.55,46.55,0,0,0-7.54-.77Zm95.22.91H518.52l-11.76,15.54L495,362.17H482.28l18,24-18,23.64h13l11.43-15.08,11.43,15.08h13.12l-18.08-23.6ZM299.37,351.46c-3.77,5-4.68,6.71-8.32,6.71h-54.3v64.57h21.31a15.91,15.91,0,0,0,12.47-6.2c3.9-5.16,4.42-6.71,8.18-6.71h54.43V345.26H311.71a15.48,15.48,0,0,0-12.34,6.2Zm16.89,41.71H293.52A15.23,15.23,0,0,0,281,399.24c-3.9,5.17-4.68,6.72-8.32,6.72H253.51V375h22.73a15.72,15.72,0,0,0,12.47-6.2c3.9-5,4.94-6.59,8.44-6.59h19.1Zm81.58-15.88A15.49,15.49,0,0,0,406,363.47c0-9.3-7.14-18.21-17.54-18.21H357.31v64.57h31.18c11.3,0,19.09-8,19.09-18.08C407.58,385.81,404.85,380.64,397.83,377.29Zm-29.49-22h19.23c4.81,0,7.66,4.52,7.66,8.52a8.42,8.42,0,0,1-8.31,8.26H368.35Zm18.58,44.43H368.35V382.19h19.23a9.08,9.08,0,0,1,9,8.65C396.54,395.75,391.47,399.76,386.92,399.76Z" transform="translate(-236.75 -345.26)"/><path d="M471.23,396.14a10.78,10.78,0,0,1-9.23,4.52c-6.1,0-11.17-4.13-11.17-10.46h33a14.57,14.57,0,0,0,.65-4.52c0-14.46-9-24.41-22.47-24.41-13.25,0-22.6,9.43-22.6,24.79,0,15,9,24.67,22.86,24.67,9.74,0,18.32-4.78,20.79-14.59ZM462,371.34c6.11,0,10.78,3.87,10.65,9.69H451C451,375.35,455.91,371.34,462,371.34Z" transform="translate(-236.75 -345.26)"/></svg>