<?xml version="1.0" encoding="utf-8"?>
<!-- Generator: Adobe Illustrator 21.0.0, SVG Export Plug-In . SVG Version: 6.00 Build 0)  -->
<svg version="1.1" id="Layer_1" xmlns="http://www.w3.org/2000/svg" xmlns:xlink="http://www.w3.org/1999/xlink" x="0px" y="0px"
	 width="1265.813px" height="261.397px" viewBox="0 0 1265.813 261.397" style="enable-background:new 0 0 1265.813 261.397;"
	 xml:space="preserve">
<style type="text/css">
	.st0{fill:#1B3C33;}
</style>
<g>
	<path class="st0" d="M1212.895,1.307c10.43-2.3,21.99-1.82,31.47,3.51c7.4,3.97,12.98,11.21,14.77,19.43
		c1.76,8.26,0.9,17.31-3.65,24.57c-4.87,8.31-14.01,13.4-23.35,14.9c-9.02,1.4-18.65,0.67-26.86-3.57
		c-8.79-4.23-15.18-12.98-16.52-22.64c-0.75-6.81-0.31-13.99,2.93-20.15C1195.795,9.107,1204.015,3.357,1212.895,1.307z"/>
	<path class="st0" d="M110.915,13.247c13.57-0.48,27.29-0.6,40.65,2.15c15.49,2.96,31.08,9.13,42,20.92
		c11.68,11.99,16.15,29.9,13.31,46.19c-1.62,9.6-6.75,19.02-15.16,24.27c-5.45,3.52-11.92,5.27-18.39,5.4
		c-9.07,0.43-18.66-1.99-25.45-8.27c-8.75-7.71-11.75-20.51-9.37-31.67c0.79-4.79,2.94-9.2,4.29-13.83
		c1.71-5.49-0.25-12.13-5.06-15.43c-4.15-3.07-9.46-3.84-14.46-4.36c-13.65-0.62-27.2,5.21-36.68,14.94
		c-15.98,15.85-22.8,38.81-23.73,60.82c-0.66,21.5,2.99,44.05,15.18,62.21c7.78,11.94,19.96,20.94,33.77,24.57
		c15.57,3.85,32.61,2.37,47.01-4.83c13.13-6.55,22.51-18.65,28.93-31.55c1.96-3.62,3.5-8.19,7.66-9.83
		c3.45-1.01,7.95-1.03,10.5,1.93c4.38,4.63,4.98,11.49,4.87,17.57c0.43,22.15-8.25,44.62-24.4,59.95
		c-16.09,16.09-38.67,24.37-61.09,26.03c-12.14,0.57-24.39,0.35-36.36-1.92c-19.98-3.66-39.42-12.38-54.13-26.58
		c-16.7-15.52-26.97-36.97-31.57-59.08c-3.52-17.54-4.11-35.63-2.05-53.38c2.95-23.35,12.01-46.11,26.99-64.37
		c11.58-13.94,26.47-25.16,43.21-32.16C83.875,17.447,97.365,14.517,110.915,13.247z"/>
	<path class="st0" d="M224.915,18.127c8.11-1.04,16.3-0.42,24.45-0.58c12.23,0.23,24.5-0.53,36.69,0.48
		c2.37,1.73,3.32,4.47,3.13,7.34c0.14,24.93,0.03,49.85,0.06,74.78c9.19-14.75,24.33-26.25,41.69-29.03
		c14.98-2.04,31.2,0.21,43.57,9.44c13.79,9.92,20.36,27.27,20.66,43.84c0.06,32.01-0.04,64.02,0.05,96.03
		c0.18,6.68,0.71,13.74,4.37,19.54c1.82,3.29,5,6.37,4.46,10.46c-0.01,2.93-2.73,5.05-5.57,4.84c-18.04,0.28-36.09,0.06-54.14,0.13
		c-5.85-0.12-11.75,0.4-17.55-0.58c-3.33-3.2-2.3-8.5,0.37-11.78c5.78-7.59,6.27-17.48,6.37-26.63c0.06-29.32,0-58.64,0.03-87.96
		c-0.12-6.44-0.8-13.24-4.25-18.83c-3.08-5.07-9.25-7.71-15.05-7.32c-5.38,0.38-10.4,3.08-14.14,6.87
		c-7.39,7.31-10.92,17.9-10.83,28.16c-0.09,21.02-0.01,42.05-0.04,63.07c0.05,8.66-0.17,17.34,0.36,25.99
		c0.41,5.41,1.97,10.79,4.99,15.33c1.89,2.89,4.36,6.15,3.22,9.83c-0.37,3.05-3.79,3.97-6.39,3.84c-21.36,0.03-42.73,0.01-64.1,0
		c-2.08,0.03-4.13-0.33-6.16-0.75c-0.69-0.92-1.4-1.84-2.1-2.74c-1.26-5.79,3.8-9.64,5.76-14.51c2.82-6.6,2.78-13.93,3.03-20.97
		c0.08-46.67,0.02-93.34,0.04-140.01c-0.2-13.58,0.94-27.79-4.37-40.64c-1.77-3.91-4.05-8.18-2.81-12.61
		C221.125,20.837,223.295,19.577,224.915,18.127z"/>
	<g>
		<path class="st0" d="M613.025,21.887c1.74-3.37,5.75-4.34,9.26-4.29c16.04-0.14,32.08,0.01,48.12-0.07
			c2.81-0.03,5.61,0.31,8.42,0.59c1.35,1.43,2.67,3.03,2.45,5.14c0.27,24.44-0.15,48.89,0.22,73.32
			c5.04-6.47,10.34-12.98,17.43-17.33c10.16-6.55,22.31-9.83,34.39-9.48c16.1-0.54,32.5,5.21,44.15,16.47
			c13.83,12.9,20.95,31.43,23.92,49.77c2.45,16.4,2.34,33.23-0.61,49.56c-3.35,18.1-11.44,35.56-24.45,48.74
			c-14.64,14.36-34.56,22.6-54.84,24.56c-13.37,1.63-27.02,0.94-40.18-1.91c-7.3-1.57-14.43-4.23-21.93-4.64
			c-10.52-0.72-19.49,7.12-30.09,5.87c-5.75,0.22-10.96-4.99-10.7-10.74c-0.27-13.04,1.31-26.02,1.18-39.06
			c0.15-48.97,0.08-97.94,0.05-146.9c0.12-9.81-1.29-19.85-5.68-28.71C612.335,29.477,612.155,25.487,613.025,21.887z
			 M698.515,104.547c-6.03,0.74-11.66,4.53-14.16,10.13c-2.87,6.48-3.01,13.73-3,20.7c0,17.34,0,34.69,0,52.03
			c0.06,9.25-0.38,18.57,1.13,27.73c1.96,7.97,5.91,16.16,13.25,20.46c7.3,4.52,17.26,3.69,23.96-1.58
			c8.08-6.29,12.28-16.17,14.84-25.81c4.6-18.54,4.4-37.94,2.06-56.8c-1.95-12.86-5.24-26.17-13.54-36.52
			C717.275,107.677,707.795,103.237,698.515,104.547z"/>
	</g>
	<g>
		<path class="st0" d="M496.935,70.177c22.16-1.78,45.57,1.27,64.66,13.33c14.46,8.86,25.58,22.75,31.74,38.49
			c6.88,17.18,8.36,36.07,6.95,54.39c-1.81,20.33-9.52,40.52-23.63,55.52c-14.1,15.09-33.84,24.3-54.22,26.87
			c-20.29,2.47-41.58,0.3-60.1-8.76c-16.11-7.72-29.57-20.86-37.57-36.85c-7.5-15.05-10.75-32.01-10.42-48.76
			c-0.31-22.11,6.04-44.82,20.21-62.08C449.545,83.347,473.075,72.257,496.935,70.177z M495.265,94.147
			c-5.22,3.83-8.64,9.65-10.85,15.63c-4.67,12.66-6.13,26.22-6.65,39.62c-0.25,20.71,0.75,41.74,6.5,61.76
			c2.75,8.79,6.66,17.88,14.22,23.6c6.48,5.03,16.39,5.13,22.73-0.19c6.54-5.55,9.88-13.88,12.02-21.97
			c5.23-19.95,4.73-40.78,3.69-61.2c-1.33-14.02-3.06-28.28-8.61-41.36c-3.04-6.74-7.28-13.53-14.05-17.03
			C508.375,89.817,500.705,90.177,495.265,94.147z"/>
	</g>
	<g>
		<path class="st0" d="M835.555,84.597c12.79-9.67,29-13.38,44.71-14.72c20.78-1.13,42.52-0.75,61.82,7.97
			c12.85,5.58,23.57,16.07,28.7,29.19c3.2,8.03,4.51,16.73,4.5,25.35c0.02,25.68-0.19,51.35-0.24,77.03
			c0.12,7.97-0.92,16.31,2.01,23.93c1.77,4.7,8.39,6.48,8.17,12.03c0.48,4.48-3.64,7.43-7.2,9.12c-9.91,4.43-21.05,4.48-31.71,4.4
			c-8.22-0.04-17.24-1.28-23.53-7.04c-4.84-4.43-6.14-11.25-6.55-17.5c-7.45,12.03-19.81,20.69-33.52,24.03
			c-11.08,2.47-22.87,2.28-33.79-0.92c-16.45-4.79-30.15-18.26-34.4-34.97c-3.17-13-2.41-27.37,3.81-39.38
			c6.61-13.24,19.45-21.99,32.65-27.82c19.09-8.07,39.75-11.65,60.27-13.67c1.69-0.37,5.27,0.54,5.07-2.23
			c0.04-10.43,0.41-21.12-2.55-31.23c-1.99-6.62-6.31-12.98-12.89-15.67c-7.3-3.13-15.93-3.17-23.28-0.2
			c-4.64,1.84-8.39,6.77-7.19,11.92c1.31,6.7,3.78,13.38,2.73,20.31c-1.23,10.23-9.99,18.61-20,20.33
			c-7.59,1.11-15.87,0.56-22.36-3.91c-9.11-5.9-12.75-17.58-11.59-27.98C820.095,101.647,826.575,91.337,835.555,84.597z
			 M880.225,178.307c-9.43,8.28-13.39,21.96-10.48,34.08c1.27,6.01,4.87,11.7,10.3,14.75c5.3,3.02,11.96,3.21,17.64,1.15
			c9.37-3.32,15.81-12.46,17.56-22.03c1-7.9,0.35-15.9,0.58-23.85c-0.33-6.85,1.32-13.71,0.07-20.52
			C903.205,165.127,889.895,168.957,880.225,178.307z"/>
	</g>
	<path class="st0" d="M1102.275,71.457c11.93-1.89,24.63-1.37,35.85,3.46c13.44,5.73,23.46,18,27.41,31.95
		c4.48,13.75,2.49,28.36,2.82,42.54c0.23,25.63-0.56,51.29,0.63,76.9c0.04,6.76,3.14,12.89,6.92,18.31
		c2.72,3.47,1.99,10.54-3.39,10.6c-21.38,0.43-42.79,0.04-64.19,0.2c-2.72,0.08-5.43-0.14-8.08-0.72c-0.75-0.99-1.52-1.97-2.28-2.93
		c-1.01-6.27,4.8-10.22,6.44-15.73c2.61-7.58,2.49-15.74,2.58-23.66c-0.02-28.65,0.05-57.31-0.04-85.96
		c-0.26-6.82-1.31-14.25-6.06-19.51c-4.91-4.96-12.98-6.25-19.36-3.63c-7.24,2.84-12.13,9.55-15.01,16.53
		c-3.64,8.72-3.26,18.32-3.23,27.57c0,22.34-0.02,44.68,0.01,67.01c0.15,9.07-0.21,18.94,5.06,26.8c2.33,3.32,5.03,7.43,3.13,11.61
		c-1.16,2.79-4.64,2.44-7.11,2.6c-21.7-0.04-43.4,0.07-65.09-0.05c-2.71,0.28-4.75-1.39-6.26-3.4c-1.01-6.29,4.55-10.33,6.37-15.78
		c2.64-6.94,2.25-14.51,2.5-21.8c0.07-29.32,0.01-58.65,0.04-87.97c-0.16-8.63,0.35-17.36-1.14-25.9
		c-0.87-5.71-4.63-10.29-6.8-15.48c-1.44-3.57-0.51-7.76,2.68-10.01c2.49-0.64,5.04-1.21,7.65-1.12
		c16.37,0.07,32.74,0.03,49.11,0.01c2.95,0.01,7.02,0.86,7.57,4.34c1.17,7.73,0.35,15.61,0.51,23.4
		C1069.875,86.357,1085.125,74.827,1102.275,71.457z"/>
	<path class="st0" d="M1187.195,79.097c0.84-4.01,5.54-5.08,9.06-5.2c17.98,0.1,35.96-0.12,53.94,0.12
		c3.56-0.09,6.69,2.71,6.59,6.36c0.17,46.99-0.07,93.98,0.11,140.97c0.13,7.68,1.57,15.71,6.4,21.92c2,2.44,2.64,5.59,2.5,8.68
		c-1.58,1.95-3.66,3.64-6.34,3.4c-22.03,0.1-44.06,0.05-66.09,0.02c-2.63,0.04-6.32-0.75-6.62-3.92c-1.25-4.79,2.67-8.27,4.69-12.1
		c4.33-8.25,3.98-17.87,4.08-26.92c-0.05-32.67,0.03-65.33-0.05-98c-0.25-7.9-0.72-16.18-4.75-23.19
		C1188.775,87.527,1185.675,83.507,1187.195,79.097z"/>
</g>
</svg>
