<svg fill="none" height="51" viewBox="0 0 175 51" width="175" xmlns="http://www.w3.org/2000/svg">
<path d="M0.161737 16.1776H11.3621L10.4725 49.6653H0.404344L0.161737 16.1776Z" fill="#DF2A63"></path>
<path d="M28.2232 0.161776L27.9806 16.5012C30.7706 15.571 33.3584 15.1261 35.744 15.1261C38.817 15.1261 41.6474 16.0563 44.1948 17.8763C48.7639 21.1523 51.0282 25.9651 51.0282 32.3553C51.0282 38.2197 49.0469 42.8303 45.1248 46.1871C41.6878 49.1396 37.4827 50.636 32.5092 50.636C28.3849 50.636 24.4628 49.6249 20.7024 47.5623C19.6107 46.9556 18.5594 46.268 17.5485 45.4187C17.9933 43.7201 18.1955 41.617 18.1955 39.1094L17.7911 7.96749C17.7911 6.1475 17.589 4.1253 17.225 1.90087L28.2232 0.161776ZM27.7784 25.8842L27.8593 40.2014C29.4362 41.1721 31.1345 41.6979 32.9136 41.6979C35.7844 41.6979 38.0488 40.5654 39.7066 38.3006C40.7983 36.7637 41.3644 34.9033 41.3644 32.6788C41.3644 29.9286 40.5153 27.8255 38.817 26.41C37.2805 25.0753 35.4205 24.4282 33.2775 24.4282C31.4175 24.3878 29.598 24.9136 27.7784 25.8842Z" fill="#DF2A63"></path>
<path d="M72.1349 14.8025C75.4101 14.8025 78.4831 15.6923 81.354 17.5123C86.8935 21.0309 89.6835 26.1269 89.6835 32.7597C89.6835 35.4695 89.0769 38.0983 87.8235 40.5654C86.1252 43.9627 83.6183 46.5916 80.2218 48.4116C77.5127 49.908 74.561 50.636 71.3667 50.636C65.8676 50.636 61.4198 48.6542 58.0233 44.6907C55.3142 41.4552 53.9395 37.6534 53.9395 33.245C53.9395 27.9469 55.8803 23.4576 59.7216 19.7367C63.1585 16.4607 67.3232 14.8025 72.1349 14.8025ZM72.0945 24.0238C69.4258 24.0238 67.3232 25.0753 65.7059 27.2189C64.3715 29.0389 63.7246 30.9397 63.7246 33.0024C63.7246 35.2672 64.4928 37.2895 65.9889 39.0285C67.5254 40.8081 69.345 41.6574 71.4475 41.6574C73.1458 41.6574 74.7227 41.0912 76.1784 39.9183C78.564 38.0579 79.7366 35.5908 79.7366 32.6384C79.7366 29.8477 78.7662 27.5829 76.8253 25.7629C75.5314 24.6304 73.9545 24.0238 72.0945 24.0238Z" fill="#DF2A63"></path>
<path d="M114.308 18.483L114.268 26.6931L105.938 26.6122L105.695 36.1166C105.695 37.6939 105.938 38.8668 106.423 39.5948C107.232 40.7676 108.324 41.3743 109.618 41.3743C110.628 41.3743 111.922 41.0103 113.54 40.2419L116.128 46.9151C113.095 49.1396 110.062 50.272 107.07 50.272C104.038 50.272 101.45 49.2609 99.3068 47.2791C97.1638 45.2974 96.1125 42.9516 96.153 40.2014L96.1934 26.4504L91.6647 26.2887L91.7052 18.2403H96.3147L96.3551 13.3061C96.3956 10.6772 96.3147 8.77637 96.1125 7.64393L106.221 7.76527C106.221 8.29104 106.181 9.09992 106.1 10.2728C106.059 10.6772 106.059 11.567 106.019 12.9421L105.898 18.3212L114.308 18.483Z" fill="#DF2A63"></path>
<path d="M139.741 18.483L139.701 26.6931L131.371 26.6122L131.129 36.1166C131.129 37.6939 131.371 38.8668 131.857 39.5948C132.665 40.7676 133.757 41.3743 135.051 41.3743C136.062 41.3743 137.356 41.0103 138.973 40.2419L141.561 46.9151C138.528 49.1396 135.496 50.272 132.503 50.272C129.471 50.272 126.883 49.2609 124.74 47.2791C122.597 45.2974 121.546 42.9516 121.586 40.2014L121.627 26.4504L117.098 26.2887L117.138 18.2403H121.748L121.788 13.3061C121.829 10.6772 121.748 8.77637 121.546 7.64393L131.654 7.76527C131.654 8.29104 131.614 9.09992 131.533 10.2728C131.493 10.6772 131.493 11.567 131.452 12.9421L131.331 18.3212L139.741 18.483Z" fill="#DF2A63"></path>
<path d="M145.038 17.755C149.89 15.9754 154.338 15.1261 158.462 15.1261C162.587 15.1261 165.983 16.0563 168.733 17.9572C170.997 19.4941 172.25 21.7994 172.533 24.8731C172.574 25.318 172.614 25.8033 172.614 26.3291L172.695 37.4108C172.736 42.1832 173.504 45.904 175 48.6542L165.821 51L164.527 47.5623C162.142 49.6249 159.271 50.6764 155.834 50.6764C151.71 50.6764 148.435 49.1396 146.049 46.0658C144.189 43.6796 143.259 41.0508 143.259 38.2601C143.259 34.7819 144.593 31.9508 147.222 29.686C149.648 27.6233 152.599 26.6122 156.077 26.6122C158.341 26.6122 160.808 27.1784 163.395 28.3109C162.951 24.7113 160.767 22.8914 156.845 22.8914C153.772 22.8914 150.658 23.5789 147.505 24.9136L145.038 17.755ZM158.098 33.0428C156.562 33.0428 155.308 33.609 154.338 34.701C153.408 35.7526 152.923 36.8446 152.923 38.0579C152.923 39.433 153.489 40.6868 154.662 41.8192C155.632 42.7494 156.805 43.2347 158.179 43.2347C159.756 43.2347 161.05 42.6685 162.142 41.4552C162.91 40.6059 163.314 39.5948 163.314 38.341C163.314 36.7637 162.829 35.4695 161.818 34.4988C160.727 33.5282 159.514 33.0428 158.098 33.0428Z" fill="#DF2A63"></path>
<path d="M11.4025 12.4568C11.4025 12.4568 10.9173 12.4568 10.7555 12.4568C2.50693 12.4568 0 7.84615 0 7.84615V0C0 0 2.78997 2.66931 10.5534 2.66931C10.7555 2.66931 11.4025 2.66931 11.4025 2.66931V12.4568Z" fill="#DF2A63"></path>
</svg>