<?xml version="1.0" encoding="utf-8"?>
<!-- Generator: Adobe Illustrator 24.1.3, SVG Export Plug-In . SVG Version: 6.00 Build 0)  -->
<svg version="1.1" id="Layer_1" xmlns="http://www.w3.org/2000/svg" xmlns:xlink="http://www.w3.org/1999/xlink" x="0px" y="0px"
	 viewBox="0 0 356.61 270.79" style="enable-background:new 0 0 356.61 270.79;" xml:space="preserve">
<style type="text/css">
	.st0{fill:#e32652;}
</style>
<g>
	<path class="st0" d="M176.29,93.61L149.85,2.24H76.5v14.67h6.96c8.68,0,15.88,5.06,18.52,14.41l40.41,139.24h36.8l18.04-61.81
		l-0.26-0.23C185.19,108.53,179.41,104.2,176.29,93.61"/>
	<path class="st0" d="M324.65,155.89c-8.65,0-15.62-5.76-18.26-14.67L265.98,2.24h-56.27l48.8,168.32h73.1V155.9L324.65,155.89
		L324.65,155.89z"/>
	<polygon class="st0" points="24.96,155.86 24.96,170.57 89.98,170.57 89.98,170.54 89.98,155.88 89.98,155.86 	"/>
	<path class="st0" d="M44.43,232.75L31.9,268.1h-3.38l-13.32-35.35l-3.29,27.26c-0.09,0.5-0.15,1.24-0.15,1.57
		c0,3.29,1.44,3.97,6.26,4.21v2.3H2.79v-2.3c3.76-0.2,5.02-0.93,5.41-3.88l4.16-32.88c0.44-3.56-1.26-4.61-5.62-4.88v-2.22h14.92
		c0.14,1.44,0.45,2.56,0.98,4.02l10.77,28.68l9.97-28.77c0.53-1.43,0.93-2.5,1.03-3.94H59.1v2.22c-4.24,0.29-5.96,1.32-5.47,4.88
		l4.02,32.88c0.39,3.09,1.77,3.68,5.42,3.88v2.3H41.74v-2.3c4.55-0.25,6.12-0.93,6.12-4.21c0-0.39-0.06-1.06-0.12-1.57L44.43,232.75
		z M91.99,260.79c0,2.24,0.53,3.68,2.2,3.68c0.98,0,1.91-0.32,2.64-0.65l0.39,1.44c-1.91,2.24-4.41,3.51-7.45,3.51
		c-3.65,0-5.96-2.2-6.6-5.82c-2.11,2.79-5.53,5.68-10.37,5.68c-5.28,0-8.77-3.24-8.77-8.51c0-5.59,4.02-7.98,8.97-9.74l9.97-3.62
		v-5.56c0-3.82-1.27-6.52-4.64-6.52c-3.09,0-4.94,0.79-5.93,2.17c2.05,0.47,3.23,2.11,3.23,4.15c0,2.84-1.96,4.7-5,4.7
		c-2.83,0-4.64-1.85-4.64-4.75c0-5.53,5.68-8.32,13.06-8.32c8.38,0,12.92,3.04,12.92,10.82L91.99,260.79L91.99,260.79z
		 M82.98,261.38v-12.23l-5.68,2.24c-2.78,1.12-4.55,2.59-4.55,6.26c0,3.46,1.57,5.82,5.14,5.82
		C79.8,263.48,81.12,262.76,82.98,261.38 M98.28,265.54l-0.42-9.11h2.44c1.47,5.73,4.75,10.03,9.83,10.03
		c3.57,0,6.21-1.65,6.21-5.29c0-3.56-2.38-4.94-7.58-6.79c-7-2.45-10.62-5.23-10.62-11.3c0-6.65,5-10.48,12.19-10.48
		c4.3,0,7.92,1.07,10.77,2.84v7.98h-2.25c-1.12-4.69-3.82-8.56-8.51-8.56c-3.34,0-5.34,1.97-5.34,4.88c0,2.95,2.06,4.41,7.14,6.33
		c7.12,2.44,11.26,5.14,11.26,11.61c0,7-5.2,11.09-13.32,11.09C105.06,268.77,100.98,267.45,98.28,265.54 M137.59,233.2h8.6v2.98
		h-8.6v21.89c0,3.96,1.52,5.68,4.64,5.68c1.77,0,3.23-0.59,4.86-1.77l0.87,1.12c-2.11,3.29-5.42,5.68-10.23,5.68
		c-5.34,0-9.3-2.83-9.3-10.23v-22.36h-4.09v-1.41c4.55-2.11,8.37-5.73,11.2-10.09h2.05L137.59,233.2L137.59,233.2z M177.45,246.33
		v1.52H156c-0.26,9.18,4.44,14.73,10.91,14.73c4.49,0,7.44-1.97,9.83-5.39l0.98,0.59c-1.66,6.52-6.47,11.01-14,11.01
		c-9.56,0-15.96-7.05-15.96-17.17c0-11.21,7.25-19,16.23-19C172.82,232.61,177.45,238.42,177.45,246.33 M156.19,245.48h13.06
		c0-6.27-1.63-10.48-5.94-10.48C158.97,235,156.66,239.41,156.19,245.48 M243.87,225.16l0.14,10.54h-2.58
		c-1.52-7.59-5.39-11.65-11.8-11.65c-9.05,0-13.21,9.02-13.21,20.26c0,12.25,4.82,21.64,13.79,21.64c6.21,0,10.42-3.91,12.67-13.46
		h2.7l-1.04,12.39c-3.82,2.44-8.99,3.91-15.17,3.91c-14.32,0-23.18-8.96-23.18-22.56c0-15.38,10.23-25.01,23.18-25.01
		C235.25,221.21,240.11,222.63,243.87,225.16 M260.5,263.03c0,2.3,0.98,2.7,4.1,2.89v2.17h-17.36v-2.17c3.03-0.2,4.1-0.59,4.1-2.89
		v-35.12l-3.96-2.05v-1.38l11.65-3.18h1.46L260.5,263.03L260.5,263.03z M284.69,261.35v-12.19l-5.67,2.24
		c-2.7,1.03-4.5,2.56-4.5,6.26c0,3.43,1.6,5.82,5.08,5.82C281.52,263.48,282.85,262.76,284.69,261.35 M300.03,265.54l-0.39-9.11
		h2.45c1.43,5.73,4.74,10.03,9.8,10.03c3.56,0,6.29-1.65,6.29-5.29c0-3.56-2.45-4.94-7.68-6.79c-7-2.45-10.62-5.23-10.62-11.3
		c0-6.65,5-10.48,12.27-10.48c4.21,0,7.84,1.07,10.67,2.84v7.98h-2.24c-1.1-4.69-3.82-8.56-8.43-8.56c-3.43,0-5.42,1.97-5.42,4.88
		c0,2.95,2.05,4.41,7.14,6.33c7.14,2.44,11.35,5.14,11.35,11.61c0,7-5.29,11.09-13.4,11.09
		C306.83,268.77,302.73,267.45,300.03,265.54 M328.61,265.54l-0.33-9.11h2.44c1.43,5.73,4.8,10.03,9.83,10.03
		c3.53,0,6.26-1.65,6.26-5.29c0-3.56-2.5-4.94-7.59-6.79c-7.08-2.45-10.7-5.23-10.7-11.3c0-6.65,5.03-10.48,12.28-10.48
		c4.21,0,7.84,1.07,10.7,2.84v7.98h-2.24c-1.07-4.69-3.85-8.56-8.46-8.56c-3.44,0-5.34,1.97-5.34,4.88c0,2.95,1.97,4.41,7.05,6.33
		c7.2,2.44,11.3,5.14,11.3,11.61c0,7-5.23,11.09-13.35,11.09C335.52,268.77,331.36,267.45,328.61,265.54 M293.77,260.79
		c0,2.24,0.5,3.68,2.17,3.68c0.98,0,1.91-0.32,2.64-0.65l0.39,1.44c-1.91,2.24-4.41,3.51-7.44,3.51c-3.62,0-5.96-2.2-6.6-5.82
		c-2.11,2.79-5.53,5.68-10.37,5.68c-5.28,0-8.77-3.24-8.77-8.51c0-5.59,4.02-7.98,8.97-9.74l9.97-3.62v-5.56
		c0-3.82-1.26-6.52-4.61-6.52c-3.12,0-4.98,0.79-5.96,2.17c2.05,0.47,3.23,2.11,3.23,4.15c0,2.84-1.97,4.7-5,4.7
		c-2.84,0-4.64-1.85-4.64-4.75c0-5.53,5.67-8.32,13.06-8.32c8.4,0,12.95,3.04,12.95,10.82L293.77,260.79L293.77,260.79z
		 M194.93,236.97c0,3.23,1.91,5.29,4.8,5.29c3.18,0,5.17-2.06,5.17-4.94c0-2.98-1.79-4.7-4.35-4.7c-3.57,0-5.88,2.5-8.47,9.77
		l0.26-9.77h-1.52l-11.79,3.57v1.24l3.96,2.39v23.23c0,2.3-1.06,2.7-4.1,2.89v2.17h18.74v-2.17c-4.02-0.33-5.54-0.73-5.54-3.38
		v-16.94c1.46-4.1,3.77-6.94,7.59-9.18L194.93,236.97z"/>
</g>
</svg>
