<?xml version="1.0" encoding="utf-8" ?>
<!DOCTYPE svg PUBLIC "-//W3C//DTD SVG 1.1//EN" "http://www.w3.org/Graphics/SVG/1.1/DTD/svg11.dtd">
<svg xmlns:inkscape="http://www.inkscape.org/namespaces/inkscape" xmlns:sodipodi="http://sodipodi.sourceforge.net/DTD/sodipodi-0.dtd" xmlns="http://www.w3.org/2000/svg" xmlns:svg="http://www.w3.org/2000/svg" version="1.1" id="svg2" width="735.03998" height="122.56" viewBox="0 0 735.03998 122.56"><defs id="defs6"/><g id="g8" transform="matrix(1.3333333,0,0,-1.3333333,0,122.56)"><g id="g10" transform="scale(0.1)"><path d="M 3074.94,919.207 2908.52,792.316 2828.14,505.77 2921.29,373.91 h 269.66 l -54.83,-198.058 h -222.74 l 26.19,94.14 H 2762.62 L 2725.06,131.859 2820.78,1.20313 h 312.89 l 167.11,128.90587 79.5,289.172 -94.02,130.727 h -269.28 l 54.38,195.582 h 221.57 l -26.44,-95.156 h 177.56 l 40.19,141.882 -92.43,126.891 h -316.87" style="fill:#ffffff;fill-opacity:1;fill-rule:nonzero;stroke:none" id="path12"/><path d="M 3750.92,919.207 3583.83,792.316 3400.37,130.98 3496.75,1.20313 h 312.9 l 167.32,129.77687 51.54,186.782 h -176.88 l -39.3,-141.91 h -222.29 l 158.62,570.757 h 221.69 L 3930.5,602.68 h 176.63 l 53.3,189.636 -91.3,126.891 h -318.21" style="fill:#ffffff;fill-opacity:1;fill-rule:nonzero;stroke:none" id="path14"/><path d="M 4973.76,919.207 4718.68,1.20313 h 176.8 l 76.15,274.96487 h 143.9 L 5148.5,1.20313 h 172.85 l -37.87,312.85987 124.48,100.847 104.84,377.406 -92.87,126.891 z m 128.1,-172.598 h 221.59 l -82.42,-296.781 h -221.34 l 82.17,296.781" style="fill:#ffffff;fill-opacity:1;fill-rule:nonzero;stroke:none" id="path16"/><path d="M 1989.61,919.207 1846.22,400.934 1761.04,919.207 H 1585.82 L 1330.78,1.20313 h 176.98 L 1653.58,521.492 1740.07,1.20313 h 172.54 L 2166.79,919.207 h -177.18" style="fill:#ffffff;fill-opacity:1;fill-rule:nonzero;stroke:none" id="path18"/><path d="M 2397.85,919.207 2232.83,793.191 2012.67,1.20313 h 176.75 l 76.13,274.80887 h 222.79 L 2412.21,1.20313 h 176.18 l 220.16,791.11287 -92.71,126.891 z m -2.04,-172.598 h 222.78 l -82.05,-296.515 h -222.78 l 82.05,296.515" style="fill:#ffffff;fill-opacity:1;fill-rule:nonzero;stroke:none" id="path20"/><path d="M 4425.85,919.207 4260.01,792.316 4040.74,1.20313 h 176.69 l 76.11,274.80887 h 222.79 L 4440.21,1.20313 h 177.12 l 219.29,791.98787 -92.79,126.016 z m -2.04,-172.598 h 222.79 l -82.06,-296.515 h -222.78 l 82.05,296.515" style="fill:#ffffff;fill-opacity:1;fill-rule:nonzero;stroke:none" id="path22"/><path d="M 1136.69,919.063 881.602,1.05859 h 352.888 l 254.2,918.00441 h -352" style="fill:#1478c7;fill-opacity:1;fill-rule:nonzero;stroke:none" id="path24"/><path d="M 630.637,918.789 375.293,0.00390625 H 545.598 L 799.996,918.789 H 630.637" style="fill:#ee293d;fill-opacity:1;fill-rule:nonzero;stroke:none" id="path26"/><path d="M 869.605,918.789 614.262,0.00390625 H 784.566 L 1038.96,918.789 H 869.605" style="fill:#ee293d;fill-opacity:1;fill-rule:nonzero;stroke:none" id="path28"/><path d="M 255.344,918.789 0,0.00390625 H 105.789 L 360.191,918.789 H 255.344" style="fill:#fcd43d;fill-opacity:1;fill-rule:nonzero;stroke:none" id="path30"/><path d="M 429.141,918.789 173.793,0.00390625 H 279.59 L 533.984,918.789 H 429.141" style="fill:#fcd43d;fill-opacity:1;fill-rule:nonzero;stroke:none" id="path32"/></g></g></svg>