<svg xmlns="http://www.w3.org/2000/svg" width="156.60599" height="41.92503" viewBox="0 0 41.435333 11.092664">
  <path style="fill:#141a26;fill-rule:nonzero;stroke-width:.26458332" d="M248.28689 332.7207v.508c0 .0278-.019.0471-.0511.0471h-.11906a.04736042.04736042 0 0 1-.0466-.0471v-1.406c0-.0238.0212-.0471.0468-.0471h.0529c.0212 0 .0341.008.0426.032l.0254.0643a.45032083.45032083 0 0 1 .30824-.11774c.26988 0 .46302.23363.46302.51647 0 .28945-.20373.51858-.47149.51858-.12752 0-.23389-.0577-.25082-.0685zm-.004-.20797s.0955.073.22754.073c.15928 0 .28681-.13732.28681-.31486 0-.17594-.1106-.31326-.27861-.31326-.14235 0-.22728.10927-.23574.13943zm.89032-.0534c0-.1823.14023-.31935.39317-.31935.10213 0 .19764.0299.19764.0299.004-.15637-.0341-.22701-.15716-.22701-.11271 0-.22331.032-.27411.0471-.0299.006-.0489-.013-.0556-.0408l-.019-.0815c-.006-.0344.009-.0492.0317-.0579.0172-.006.15743-.0556.33814-.0556.31459 0 .34422.1905.34422.43709v.52732a.04894792.04894792 0 0 1-.0468.0471h-.0701c-.019 0-.0296-.008-.0402-.0344l-.0236-.0661c-.0529.0513-.15081.12436-.30162.12436-.18495 0-.31671-.12436-.31671-.3302zm.20823-.002c0 .0878.0511.15637.15319.15637.0976 0 .19738-.0706.22728-.11986v-.1651c-.0127-.009-.0892-.0344-.1786-.0344-.11456 0-.20187.0601-.20187.16298zm.87974.26141v-.89588c0-.0238.0212-.0471.0468-.0471h.0511a.04497917.04497917 0 0 1 .0423.0344l.0278.09a.3730625.3730625 0 0 1 .29739-.14579c.0937 0 .21034.0257.17859.0921l-.0511.10715c-.0127.0278-.0381.0344-.0595.0238a.24077083.24077083 0 0 0-.0892-.0196c-.14446 0-.22304.11588-.23177.13308v.62786c0 .0429-.0275.0471-.068.0471h-.0976a.04736042.04736042 0 0 1-.0468-.0471zm.88635-.2249v-.53604h-.11271a.04736042.04736042 0 0 1-.0468-.0471v-.0878a.04497917.04497917 0 0 1 .0468-.0471h.11245v-.27649c0-.0257.0212-.0471.0468-.0471h.12118c.0254 0 .0447.0212.0447.0471v.27649h.25929c.0254 0 .0466.0193.0466.0471v.0878c0 .0238-.0212.0471-.0468.0471h-.25929v.52731c0 .0836.032.10054.0788.10054.0617 0 .12118-.0254.15716-.0468.0299-.0172.0489 0 .0574.0212l.0384.10081c.0106.0259 0 .0429-.0235.0582-.0402.0254-.15505.0704-.272.0704-.19552 0-.2487-.11985-.2487-.29554zm1.18983-.22516c0-.2786.22516-.51435.50165-.51435.27411 0 .49927.23548.49927.51435 0 .28311-.22516.5207-.49927.5207-.27649 0-.50165-.23786-.50165-.5207zm.20823 0c0 .1823.12753.31724.29342.31724.16351 0 .29104-.13494.29104-.31724 0-.1778-.12753-.31088-.29104-.31088-.16589 0-.29342.13308-.29342.31088zm1.11125.45006v-.74348h-.12727a.04736042.04736042 0 0 1-.0468-.0476v-.10477a.04497917.04497917 0 0 1 .0468-.0471h.12753v-.11377c0-.26564.12542-.41804.36328-.41804.13176 0 .23362.0582.27834.0987.0169.0151.019.0408.008.0558l-.0616.09c-.0148.0238-.0381.0259-.0635.009a.2587625.2587625 0 0 0-.15743-.0495c-.1106 0-.15505.09-.15505.21431v.11377h.27834c.0254 0 .0468.0193.0468.0471v.10504c0 .0238-.0212.0471-.0468.0471h-.27834v.74374a.04894792.04894792 0 0 1-.0468.0471h-.11906a.04894792.04894792 0 0 1-.0466-.0471z" transform="translate(-228.87891 -322.31543)"/>
  <path style="fill:#141a26;fill-rule:evenodd;stroke-width:.26458332" d="M260.29659 331.23162c0-.11245.09-.20373.20108-.20373.11113 0 .20162.0913.20162.20373 0 .11245-.0905.20373-.20162.20373a.20240625.20240625 0 0 1-.20108-.20373m-3.30676 1.26709c-.17357 0-.29395-.13891-.29395-.33761 0-.19844.12038-.33734.29395-.33734.17462 0 .29633.1389.29633.33734 0 .20188-.11906.33761-.29633.33761zm0-.97155c-.36698 0-.63341.2667-.63341.63394 0 .36751.26643.63421.63341.63421.36856 0 .63606-.2667.63606-.63421 0-.36724-.2675-.63394-.63606-.63394zm2.9165.66569a.30056666.30056666 0 0 0-.0482-.068l-.0111-.0119.0117-.0114a.49741666.49741666 0 0 0 .0508-.0638l.32385-.48578h-.39317l-.24342.37994c-.0138.0204-.0418.0307-.0833.0307h-.0556v-.71834c0-.14367-.0886-.16325-.18441-.16325h-.16404v1.69572h.34845v-.5088h.0328c.0397 0 .0667.005.0794.0265l.19208.36592c.0537.0992.10716.11642.20797.11642h.26696l-.19897-.33205-.13176-.25189m1.69148-.6686c-.17727 0-.29025.0794-.35375.14658l-.0212.0217-.007-.0294c-.0185-.072-.0812-.11166-.17568-.11166h-.15611l.0008 1.22476h.34607v-.56436c0-.0556.007-.10319.0217-.14684.0384-.13229.14605-.21431.28019-.21431.10821 0 .15028.0574.15028.20584v.5334c0 .127.0582.18627.18389.18627h.16483l-.00052-.77894c0-.30956-.14976-.47307-.43313-.47307m-1.0959.0278h-.16404l.001.94721v.27728h.17489l.006.00027.0815-.00027h.0812v-.00053h.00053l.00053-1.03796c0-.12514-.0593-.186-.18204-.186m-2.15291.94668c-.1733 0-.29422-.13891-.29422-.33761 0-.19844.12092-.33734.29422-.33734.17436 0 .29633.1389.29633.33734 0 .20188-.11906.33761-.29633.33761zm0-.97155c-.36751 0-.63394.2667-.63394.63394 0 .36751.26643.63421.63394.63421.36803 0 .63606-.2667.63606-.63421 0-.36724-.26803-.63394-.63606-.63394zm4.4114.91784c-.18918 0-.25665-.16669-.25665-.32279 0-.0685.0175-.29263.23839-.29263.11007 0 .25665.0318.25665.30427 0 .25717-.12965.31115-.23813.31115zm.41804-.89614c-.0659 0-.11642.0265-.14182.0746l-.01.0185-.0159-.0138c-.0561-.0489-.1561-.10663-.31882-.10663-.32359 0-.54134.24501-.54134.60987 0 .36459.22516.61912.54795.61912.11007 0 .19712-.0259.26617-.0786l.0267-.0204v.0341c0 .16378-.10478.254-.29501.254-.0926 0-.17648-.023-.23284-.0434-.0733-.0222-.11641-.004-.14605.0704l-.0275.0688-.0389.10001.0241.013c.12171.0651.28019.10398.42333.10398.29475 0 .63897-.15214.63897-.5805l.001-1.12315zm-7.47766.93583h-.28178v-.33999c0-.0728.0278-.11033.0894-.11906h.19235c.13706 0 .22569.0873.22569.22833 0 .14499-.0865.23072-.22569.23072zm-.28178-.91652v-.0894c0-.0781.0328-.11536.10478-.12012h.1442c.12382 0 .19764.0746.19764.1995 0 .0953-.0505.20637-.19315.20637h-.25347zm.64162.3392-.0511-.0291.0444-.0381c.0519-.045.13838-.14552.13838-.32014 0-.26617-.20505-.43815-.52202-.43815h-.40323a.17727083.17727083 0 0 0-.17039.17594v1.51263h.58076c.35269 0 .58023-.19368.58023-.49345 0-.1614-.0736-.29951-.19711-.36962zm7.41442.67945c0-.11272.0899-.20373.20108-.20373.11112 0 .20161.091.20161.20373 0 .11244-.0905.20373-.20161.20373a.20240625.20240625 0 0 1-.20108-.20373m2.29261-.0881c-.17357 0-.29448-.13891-.29448-.33761 0-.19844.12091-.33734.29448-.33734.1741 0 .29633.1389.29633.33734 0 .20188-.11932.33761-.29633.33761zm0-.97155c-.36751 0-.63394.2667-.63394.63394 0 .36751.26643.63421.63394.63421.36804 0 .63606-.2667.63606-.63421 0-.36724-.26802-.63394-.63606-.63394zm2.18202.001c-.14341 0-.28231.068-.37148.1815l-.0251.0323-.0196-.036c-.0643-.11801-.17463-.1778-.32808-.1778-.16087 0-.26856.0905-.31856.14446l-.0331.0357-.0124-.0471c-.0185-.0677-.0783-.1053-.16907-.1053h-.14552l-.001 1.21973h.33073v-.53816c0-.0471.006-.0939.0175-.14288.0317-.12991.11827-.26987.26405-.25585.09.009.13362.0786.13362.21405v.7231h.33284v-.53842c0-.059.005-.10319.0185-.14738.027-.12435.11748-.25135.25824-.25135.1016 0 .13943.0579.13943.21405v.54477c0 .1233.0545.17833.17648.17833h.15557l.00027-.77867c0-.31115-.13573-.4691-.40296-.4691m-3.00726.82418c-.001.001-.14314.1524-.33046.1524-.17066 0-.3429-.10531-.3429-.34105 0-.20373.13361-.34581.32491-.34581.0622 0 .13255.0225.14367.0601l.002.007a.12170833.12170833 0 0 0 .11801.09l.18097.00027v-.15955c0-.21061-.26564-.28707-.4445-.28707-.38205 0-.65934.26829-.65934.63791s.27437.63764.65246.63764c.32809 0 .50668-.21748.50827-.2196l.01-.0119-.1434-.24024-.0185.0204" transform="translate(-228.87891 -322.31543)"/>
  <path style="fill:#da3743;fill-rule:evenodd;stroke-width:.26458332" d="M229.0112 327.0475c0-.635.51117-1.14988 1.14141-1.14988.6305 0 1.14168.51488 1.14168 1.14988 0 .63526-.51118 1.15014-1.14168 1.15014-.63024 0-1.14141-.51461-1.14141-1.15014zm8.0182 1.15014c-.6305 0-1.14141-.51488-1.14141-1.15014 0-.635.51091-1.14988 1.14141-1.14988.63024 0 1.14167.51488 1.14167 1.14988 0 .63526-.51143 1.15014-1.14167 1.15014zm0-5.74992c-2.52148 0-4.56592 2.05952-4.56592 4.59978 0 2.54079 2.04417 4.60005 4.56592 4.60005 2.52201 0 4.56618-2.05926 4.56618-4.60005 0-2.54-2.04417-4.59978-4.56618-4.59978z" transform="translate(-228.87891 -322.31543)"/>
  <path style="fill:#141a26;fill-rule:evenodd;stroke-width:.26458332" d="M269.6639 326.69164c.0722 0 .11483-.0326.11483-.0916 0-.0537-.0291-.0889-.10954-.0889h-.0749v.18045zm-.17912-.27173h.20293c.11219 0 .20849.0458.20849.17462a.15875.15875 0 0 1-.0987.14817l.12277.22357h-.12277l-.0939-.18838h-.10928v.18838h-.10953zm.59002.27966c0-.25267-.1733-.43312-.39741-.43312-.22463 0-.39555.18045-.39555.43312 0 .25585.17092.43048.39555.43048.22411 0 .39767-.17463.39767-.43048zm-.89985 0c0-.31485.22701-.52996.50244-.52996.27755 0 .50456.21511.50456.52996 0 .31486-.22701.53023-.50456.53023-.27543 0-.50271-.21537-.50271-.53023zm-3.35095 2.15186a.12620625.12620625 0 0 0 .12488-.12488v-.4617a.12567708.12567708 0 0 0-.12408-.12489h-.0199c-.0561 0-.11192-.0561-.11192-.11271v-2.73579c0-.0624-.0622-.12488-.12409-.12488h-.4564c-.0619 0-.12383.0624-.12383.12488v3.0308l.002.0788c0 .22569.2241.45111.44794.45111zm-20.08849-2.96228c.62098 0 1.14512.52996 1.14512 1.15835a1.1477625 1.1477625 0 0 1-1.14512 1.14856c-.62838 0-1.13929-.51462-1.13929-1.14856 0-.6387.51091-1.15835 1.13929-1.15835zm0-.72945c-1.02737 0-1.86346.84666-1.86346 1.8878 0 1.05304.81809 1.87828 1.86346 1.87828 1.04828 0 1.86928-.82524 1.86928-1.87854 0-1.04061-.83873-1.88754-1.86928-1.88754zm14.87011 2.94375c-.0336.0966-.23653.27808-.46751.27808-.24236 0-.37756-.14764-.37756-.36909 0-.23284.16324-.37465.46196-.37465.20849 0 .38311.0794.38311.0794zm-.30427-1.93595c-.42254 0-.83396.10768-.89032.13044-.0564.0169-.10716.0624-.0847.15901l.0566.29527c.0111.0794.0619.14182.14631.11351.1524-.0455.49609-.0966.7329-.0966.27596 0 .37174.15901.36036.49398 0 0-.23654-.0738-.50139-.0738-.65934 0-1.03716.35771-1.03716.82312 0 .56223.36089.89693.87921.89693a1.1361208 1.1361208 0 0 0 .81729-.32914v.14102c0 .0683.0564.12489.12409.12489h.0458a.08334375.08334375 0 0 0 .0159.001h.19182a.12567708.12567708 0 0 0 .12409-.12489v-1.41367c0-.71543-.16933-1.14114-.98081-1.14114zm-4.73075 0c-.499 0-.74109.26961-.83793.37835v-.19685a.12567708.12567708 0 0 0-.12409-.12488h-.29475a.1254125.1254125 0 0 0-.12409.12488v2.37331a.12964583.12964583 0 0 0 .12409.12489h.41699c.12409 0 .16351-.0286.16351-.12489v-1.49886c.0619-.18177.22542-.40878.56356-.40878.31538 0 .45059.21008.45059.55059v1.35705c0 .068.0566.12489.12435.12489h.45614a.12964583.12964583 0 0 0 .12409-.12489v-1.35705c0-.63579-.21431-1.19776-1.04246-1.19776zm-6.205 2.09497c-.32703 0-.54108-.14764-.54108-.14764v-.93716c.0564-.14763.2368-.36327.57494-.36327.40561 0 .6141.35772.6141.72655 0 .36909-.2196.72125-.64823.72125zm.12964-2.09497c-.53552 0-.83238.36777-.8501.39079v-.20903a.12567708.12567708 0 0 0-.12409-.12514h-.27702a.12567708.12567708 0 0 0-.12383.12488v3.44038a.12964583.12964583 0 0 0 .12383.12514h.45667c.0619 0 .12382-.0627.12382-.12514v-.98769c.11827.0455.36645.10795.62548.10795.77787 0 1.29064-.60193 1.29064-1.36843 0-.79481-.53552-1.37371-1.2454-1.37371zm18.58433 1.03875c-.0111-.25559-.21404-.45429-.50138-.45429-.31565 0-.51858.19315-.55219.45429zm-.48418-1.03902c.67601 0 1.19433.50536 1.19433 1.21497 0 .0397-.006.13044-.0111.17039a.13255625.13255625 0 0 1-.12409.11906h-1.66793c.006.32359.2704.60749.64823.60749.25903 0 .43921-.0966.55774-.19315.0619-.0511.12965-.0566.16907 0l.2196.29527c.045.0511.0508.11378-.0111.1704a1.463675 1.463675 0 0 1-.96943.35771c-.77761 0-1.31868-.62441-1.31868-1.37398 0-.73792.54107-1.36789 1.31312-1.36789zm-4.41061 2.09524c-.33813 0-.51858-.2159-.57494-.36354v-.93663s.21432-.14763.54108-.14763c.42836 0 .64823.35189.64823.72099 0 .36909-.20876.72681-.61437.72681zm.0619-2.09497c-.2593 0-.51859.0624-.63686.1135v-.99933a.12964583.12964583 0 0 0-.12409-.12488h-.4564c-.0619 0-.12383.0624-.12383.12488v3.44064a.12964583.12964583 0 0 0 .12383.12489h.19738c.004 0 .007 0 .0111-.001h.0529a.12567708.12567708 0 0 0 .12461-.12489v-.19394l.003-.01s.29898.39158.86783.39158c.71041 0 1.22317-.62441 1.22317-1.37371 0-.7665-.49027-1.36816-1.26232-1.36816zm-3.98728-1.01071h-2.65059a.10742083.10742083 0 0 0-.10689.10795v.46566c0 .0566.045.10769.10689.10769h.9562v2.90116a.111125.111125 0 0 0 .10716.10795h.52387a.111125.111125 0 0 0 .10743-.10795v-2.90116h.95593a.10742083.10742083 0 0 0 .10716-.10795v-.4654a.10742083.10742083 0 0 0-.10716-.10795zm-6.30978 2.04946c-.0114-.25559-.21431-.45429-.50165-.45429-.31538 0-.51858.19315-.55218.45429zm-.48472-1.03902c.67628 0 1.1946.50536 1.1946 1.21497 0 .0397-.005.13044-.0111.17039a.13282083.13282083 0 0 1-.12409.11906h-1.66794c.006.32359.27041.60749.64823.60749.25929 0 .43921-.0966.55774-.19315.0619-.0511.12965-.0566.16907 0l.21961.29527c.0452.0511.0508.11378-.0111.1704a1.463675 1.463675 0 0 1-.96943.35771c-.77761 0-1.31842-.62441-1.31842-1.37398 0-.73792.54081-1.36789 1.31286-1.36789z" transform="translate(-228.87891 -322.31543)"/>
</svg>
