<svg data-name="Layer 1" xmlns="http://www.w3.org/2000/svg" viewBox="0 0 992.2 308.65" width="2500" height="778"><path d="M63.44 27.39h126.94V0H63.44zM643.46 174.1h-88.78V83.08h88.78c31.63 0 52.89 18.29 52.89 45.51s-21.26 45.51-52.89 45.51m29.41 21.29c30.46-8.69 50.14-34.91 50.14-66.8 0-41.4-31.97-69.21-79.55-69.21H528.03v244.66h26.65V198.17h90.3l57.5 105.87h28.83l-59.95-108.22zm-283.2 113.26c65.35 0 110.99-45.9 110.99-111.63V59.38h-27.39v135.79c0 50.69-34.38 86.09-83.6 86.09-40.8 0-84.71-26.94-84.71-86.09V59.38h-27.38v137.64c0 65.73 46.09 111.63 112.09 111.63M867.86 91.3l57.76 126.33H809.74L867.87 91.3Zm-12.85-31.91L743.16 304.05h28.61l27.66-62.71h136.49l27.67 62.71h28.6L880.34 59.39zm-728.07-4.61C56.94 54.78 0 111.72 0 181.71s56.94 126.94 126.94 126.94 126.94-56.94 126.94-126.94S196.94 54.77 126.94 54.77m0 226.5c-54.89 0-99.55-44.66-99.55-99.55s44.66-99.55 99.55-99.55 99.56 44.66 99.56 99.55-44.66 99.55-99.56 99.55"/></svg>