<svg version="1.1" id="Layer_1" xmlns:x="ns_extend;" xmlns:i="ns_ai;" xmlns:graph="ns_graphs;" xmlns="http://www.w3.org/2000/svg" xmlns:xlink="http://www.w3.org/1999/xlink" x="0px" y="0px" viewBox="0 0 440.8 64" style="enable-background:new 0 0 440.8 64;" xml:space="preserve">
 <style type="text/css">
  .st0{fill:#00473C;}
 </style>
 <metadata>
  <sfw xmlns="ns_sfw;">
   <slices>
   </slices>
   <sliceSourceBounds bottomLeftOrigin="true" height="64" width="440.8" x="-20.1" y="-232.2">
   </sliceSourceBounds>
  </sfw>
 </metadata>
 <g>
  <path class="st0" d="M410.2,7.8h-9.1v41.5h9.1V19.6c2.5-3.6,6.6-5.8,11.1-5.8c6.3,0,10.5,3.8,10.5,10.1v25.4h9.1V22.1
		c0-8.8-6.4-15.1-16.2-15.1c-6.1,0-11.2,2.5-14.4,6.9L410.2,7.8L410.2,7.8z M373.9,13.5c6.4,0,10.9,3.8,12.2,10.5h-24.2
		C363.2,17.3,367.7,13.5,373.9,13.5L373.9,13.5z M374.1,50.2c10.1,0,17.5-5.3,20.2-14.2h-8.9c-1.7,4.7-6.2,7.8-11.2,7.6
		c-7.2,0-12.2-5-12.6-13.5h33.9v-1.7C395.4,14.7,386,7,374.1,7c-12.5,0-21.7,8.3-21.7,21.6C352.4,41.8,361.4,50.2,374.1,50.2
		L374.1,50.2z M325.5,13.5c6.4,0,10.9,3.8,12.2,10.5h-24.2C314.8,17.3,319.2,13.5,325.5,13.5L325.5,13.5z M325.6,50.2
		c10.1,0,17.5-5.3,20.1-14.2h-8.9c-1.7,4.7-6.2,7.8-11.2,7.6c-7.2,0-12.2-5-12.6-13.5h33.9v-1.7c0-13.7-9.4-21.4-21.3-21.4
		c-12.5,0-21.7,8.3-21.7,21.6C303.9,41.8,312.9,50.2,325.6,50.2L325.6,50.2z M288.4,7.8h-9.1v41.5h9.1V20.9
		c2.7-4.7,8.4-6.5,14.1-5.6V7c-6.4-0.3-11.2,2.4-14.1,7.7L288.4,7.8L288.4,7.8z M250.7,36.4c-6.9,0-12-4-12-11.2
		c0-7.5,5-11.6,12-11.6c7,0,12,4.1,12,11.6C262.7,32.4,257.6,36.4,250.7,36.4L250.7,36.4z M239.6,49.3h-8.7
		c2.2,10,10.6,14.7,22,14.7c11.4,0,19-5.2,19-13.2c0-6.2-4.5-9.1-11.5-11c6.8-1.7,11.4-7.9,11.1-14.8c0-4-1.4-7.5-3.8-10.4
		c2-0.5,4.1-0.5,6.1-0.2V6.7c-3.9-0.3-7.7,1.2-10.2,4.2c-3.9-2.5-8.4-3.8-13-3.8c-12.1,0-20.7,7.4-20.7,17.9
		c0,13.8,11.5,17,22.6,19.6c8.7,2,10.5,4,10.5,6.9c0,3.3-2.5,6.1-10.4,6.1C246,57.5,241.3,55.1,239.6,49.3L239.6,49.3z M214.4,37.6
		V14.5h13.1V7.8h-13V0h-9v7.8h-10.6v6.8h10.5v24.7c0,6.9,3.7,10.4,12.9,10.4c2.8,0,5.7-0.3,9.1-1.2v-6.6c-3,0.8-5.3,1-7.2,1
		C215.1,42.8,214.3,40.9,214.4,37.6L214.4,37.6z M172.4,13.5c6.4,0,10.8,3.8,12.2,10.5h-24.2C161.7,17.3,166.2,13.5,172.4,13.5
		L172.4,13.5z M172.6,50.2c10.1,0,17.5-5.3,20.1-14.2h-8.9c-1.7,4.7-6.2,7.8-11.2,7.6c-7.2,0-12.2-5-12.6-13.5h33.9v-1.7
		c0-13.7-9.4-21.4-21.3-21.4c-12.6,0-21.7,8.3-21.7,21.6C150.9,41.8,159.9,50.2,172.6,50.2L172.6,50.2z M124,13.5
		c6.4,0,10.8,3.8,12.2,10.5H112C113.3,17.3,117.7,13.5,124,13.5L124,13.5z M124.1,50.2c10.1,0,17.5-5.3,20.2-14.2h-8.9
		c-1.7,4.7-6.2,7.8-11.2,7.6c-7.2,0-12.2-5-12.6-13.5h33.9v-1.7c0-13.7-9.4-21.4-21.3-21.4c-12.5,0-21.7,8.3-21.7,21.6
		C102.4,41.8,111.4,50.2,124.1,50.2L124.1,50.2z M80.2,49.3h9.2L101,7.8h-8.4l-7.9,30.8l-9-30.8h-8l-8.8,30.3L51,7.8h-8.9l11.7,41.5
		H63l8.5-30L80.2,49.3z M21.5,50.1c11,0,18.7-5.4,18.7-13c0-16.4-30.8-9.3-30.8-18.7c0-3,3.2-5.2,9.3-5.2c6.6,0,10.8,2.6,12.4,8.3
		h8.5c-1.9-9.4-9.5-14.7-20.9-14.7c-11.2,0-18.1,5-18.1,12.5c0,16,30.8,8.6,30.8,18.6c0,3.3-3,5.8-10,5.8c-6.9,0-11.3-3-12.8-9.2H0
		C1.9,45,9.8,50.1,21.5,50.1L21.5,50.1z M21.5,50.1">
  </path>
 </g>
</svg>