<svg viewBox="-2.32 -2.32 120.64 20.64" width="120.64" height="20.64" fill="none" xmlns="http://www.w3.org/2000/svg"><title>Peloton Logo</title><path fill-rule="evenodd" clip-rule="evenodd" d="M5.42905 7.86178C7.02302 7.86178 8.03815 7.15218 8.03815 5.43234C8.03815 3.69099 6.9764 3.02783 5.42905 3.02783H3.23438V7.86178H5.42905V7.86178ZM0 0.207031H5.51921C8.72921 0.207031 11.3623 1.78815 11.3623 5.4324C11.3623 9.07722 8.70619 10.6825 5.51921 10.6825H3.23225V15.7947H0V0.207031V0.207031Z" fill="#181a1d"/><path fill-rule="evenodd" clip-rule="evenodd" d="M16.1094 0.207031H26.5009V3.02789H19.3416V6.60193H25.6471V9.352H19.3416V12.9748H26.8253V15.7947H16.1094V0.207031" fill="#181a1d"/><path fill-rule="evenodd" clip-rule="evenodd" d="M32.2656 0.207031H35.4986V12.9748H42.6122V15.7947H32.2656V0.207031" fill="#181a1d"/><path fill-rule="evenodd" clip-rule="evenodd" d="M59.1536 7.99951C59.1536 5.0894 57.2138 2.86548 54.3506 2.86548C51.4858 2.86548 49.5469 5.0894 49.5469 7.99951C49.5469 10.911 51.4858 13.1351 54.3506 13.1351C57.2138 13.1351 59.1536 10.911 59.1536 7.99951V7.99951ZM46.2188 7.99942C46.2188 3.39345 49.8213 0 54.348 0C58.874 0 62.4756 3.39345 62.4756 7.99942C62.4756 12.6069 58.874 16 54.348 16C49.8213 16 46.2188 12.6069 46.2188 7.99942V7.99942Z" fill="#181a1d"/><path fill-rule="evenodd" clip-rule="evenodd" d="M70.4487 3.02789H65.9688V0.207031H78.1626V3.02789H73.6826V15.7947H70.4487V3.02789" fill="#181a1d"/><path fill-rule="evenodd" clip-rule="evenodd" d="M94.561 7.99951C94.561 5.0894 92.6212 2.86548 89.7579 2.86548C86.8932 2.86548 84.9531 5.0894 84.9531 7.99951C84.9531 10.911 86.8932 13.1351 89.7579 13.1351C92.6212 13.1351 94.561 10.911 94.561 7.99951V7.99951ZM81.625 7.99942C81.625 3.39345 85.2281 0 89.7552 0C94.2818 0 97.8839 3.39345 97.8839 7.99942C97.8839 12.6069 94.2818 16 89.7552 16C85.2281 16 81.625 12.6069 81.625 7.99942V7.99942Z" fill="#181a1d"/><path fill-rule="evenodd" clip-rule="evenodd" d="M107.758 8.5496C106.974 7.81622 105.888 6.41778 105.888 6.41778C105.888 6.41778 106.119 8.13686 106.119 9.25976V15.7941H103.094V0.0683594H103.416L111.338 7.45086C112.1 8.16046 113.185 9.5804 113.185 9.5804C113.185 9.5804 112.978 7.81622 112.978 6.73975V0.20651H116.002V15.9308H115.681L107.758 8.5496" fill="#181a1d"/></svg>